{"glyphs":{"0":{"ha":789,"x_min":14,"x_max":755,"o":"m 340 43 q 279 50 311 43 q 92 195 156 79 q 14 558 14 338 q 43 827 14 680 q 143 1107 72 973 q 317 1300 215 1241 q 428 1330 370 1330 q 547 1302 484 1330 q 690 1140 640 1255 q 755 787 755 994 q 732 548 755 680 q 648 289 709 416 q 494 94 587 162 q 340 43 425 43 m 334 156 q 436 197 385 156 q 530 324 487 237 q 589 511 573 411 q 605 693 605 612 q 487 1191 605 1042 q 399 1099 445 1177 q 313 908 354 1022 q 245 667 273 793 q 207 372 207 498 q 226 232 207 296 q 334 156 248 156 z "},"1":{"ha":574,"x_min":14,"x_max":540,"o":"m 484 -45 q 460 -40 472 -45 q 270 5 366 5 q 149 -20 208 5 q 125 -25 137 -25 q 75 9 90 -25 q 70 31 70 20 q 103 82 70 66 q 190 109 146 101 q 189 151 189 125 q 208 496 189 227 q 235 1013 235 863 q 235 1074 235 1021 q 216 1143 234 1128 q 210 1145 213 1145 q 161 1095 192 1145 q 121 1022 132 1048 q 70 990 105 990 q 45 996 58 990 q 14 1045 14 1012 q 85 1181 14 1076 q 185 1291 128 1245 q 277 1326 230 1326 q 402 1194 361 1326 q 456 694 456 1022 q 453 533 456 643 q 437 289 450 422 q 410 97 424 155 q 507 62 464 82 q 540 10 540 45 q 534 -13 540 -1 q 484 -45 517 -45 z "},"2":{"ha":743,"x_min":14,"x_max":709,"o":"m 670 -25 l 666 -25 q 593 24 637 -25 q 495 62 559 62 q 249 9 408 62 q 121 -22 155 -22 q 57 -2 87 -22 q 17 60 27 18 q 14 87 14 73 q 28 149 14 117 q 212 439 86 266 q 324 601 269 517 q 422 773 378 684 q 487 989 487 911 q 415 1079 487 1079 q 296 1020 356 1079 q 238 922 254 979 q 186 881 224 881 q 146 895 163 881 q 128 934 128 909 q 130 950 128 941 q 268 1204 177 1121 q 465 1290 362 1290 q 629 1220 559 1290 q 707 1012 699 1150 l 708 991 q 624 677 708 859 q 371 258 532 490 q 546 201 446 258 q 694 74 645 143 q 709 28 709 51 q 704 -1 709 19 q 670 -25 699 -22 z "},"3":{"ha":788,"x_min":14,"x_max":754,"o":"m 340 -4 q 188 30 271 -4 q 49 189 104 63 q 45 210 45 200 q 67 257 45 233 q 125 288 90 281 l 136 288 q 177 261 163 288 q 307 119 241 140 q 347 112 328 112 q 431 149 388 112 q 498 264 474 186 q 511 351 511 308 q 498 438 511 384 q 412 533 486 492 q 300 557 368 557 q 196 547 254 557 q 164 544 179 544 q 91 571 117 544 q 64 633 64 598 q 73 679 64 646 q 153 746 81 711 q 388 991 388 851 q 381 1039 388 1002 q 326 1112 374 1075 q 229 1146 282 1146 q 192 1144 224 1146 q 116 1083 160 1143 q 73 1058 97 1058 q 53 1061 69 1058 q 20 1088 36 1063 q 14 1113 14 1100 q 24 1145 14 1128 q 347 1328 153 1328 q 464 1308 392 1328 q 593 1202 536 1287 q 630 1068 630 1145 q 612 944 630 1030 q 447 697 593 859 q 709 486 643 595 q 754 338 754 410 q 734 239 754 305 q 626 102 715 174 q 422 5 536 30 q 340 -4 380 -4 z "},"4":{"ha":806,"x_min":14,"x_max":772,"o":"m 537 0 l 535 0 q 457 30 489 0 q 421 107 425 60 l 420 134 q 422 197 420 162 q 184 264 274 197 q 54 444 94 332 q 14 693 14 557 q 45 970 14 830 q 190 1291 109 1259 q 231 1299 210 1299 q 276 1289 253 1299 q 335 1227 319 1269 q 343 1187 343 1208 q 334 1142 343 1165 q 208 728 239 928 q 197 602 197 661 q 205 497 197 562 q 268 375 214 433 q 431 313 321 317 q 442 435 435 370 q 474 937 474 751 q 473 1036 474 959 q 448 1209 471 1112 q 444 1238 444 1224 q 463 1300 444 1267 q 528 1345 482 1332 q 556 1349 543 1349 q 619 1330 587 1349 q 664 1265 651 1311 q 697 934 697 1133 q 665 414 697 747 l 663 395 l 659 355 l 696 368 q 715 371 706 371 q 768 334 753 371 q 772 314 772 323 q 734 262 772 277 q 649 234 690 246 q 645 135 645 176 l 645 114 q 615 35 645 68 q 537 0 585 3 z "},"5":{"ha":708,"x_min":14,"x_max":674,"o":"m 340 21 q 71 234 159 21 q 67 255 67 245 q 103 307 67 292 q 124 311 114 311 q 176 275 161 311 q 257 191 211 191 q 343 240 300 191 q 416 360 386 288 q 448 496 446 432 q 450 585 450 545 q 444 695 450 652 q 388 763 433 763 l 364 762 q 239 684 340 762 q 139 644 183 644 q 74 668 114 644 q 18 793 34 692 q 14 869 14 830 q 25 1005 14 924 q 64 1171 37 1086 q 114 1288 91 1255 q 208 1336 149 1336 q 269 1317 239 1336 q 359 1275 292 1302 q 492 1230 427 1247 q 551 1221 529 1221 q 578 1227 570 1221 q 616 1243 596 1243 q 673 1197 661 1243 q 674 1187 674 1192 q 640 1131 674 1161 q 374 1064 547 1064 q 283 1072 324 1064 l 276 1073 q 254 1059 262 1073 q 245 1017 245 1044 q 250 990 245 1002 q 262 979 254 979 q 269 981 265 979 q 387 1007 334 1007 q 488 980 430 1007 q 592 862 545 952 q 657 665 638 772 q 673 496 673 575 q 672 463 673 479 q 590 173 663 281 q 417 33 517 64 q 340 21 378 21 z "},"6":{"ha":661,"x_min":14,"x_max":627,"o":"m 350 26 q 183 110 259 26 q 61 342 106 193 q 14 667 14 496 q 66 970 14 829 q 235 1188 118 1111 q 439 1243 318 1243 q 541 1234 487 1243 q 577 1211 564 1229 q 587 1180 587 1196 q 563 1133 587 1149 q 531 1123 549 1123 l 522 1124 q 503 1125 512 1125 q 416 1087 458 1125 q 340 972 374 1048 q 377 976 359 976 q 452 955 414 976 q 524 887 491 934 q 576 792 557 841 q 627 498 627 661 q 595 262 627 365 q 505 99 563 159 q 350 26 433 26 m 396 252 q 475 309 440 252 q 515 509 515 376 q 472 751 515 641 q 379 863 427 863 q 349 858 376 863 q 275 747 321 853 q 259 562 259 652 q 261 485 259 546 q 291 349 263 424 q 376 254 319 274 q 396 252 386 252 z "},"7":{"ha":722,"x_min":14,"x_max":688,"o":"m 260 73 q 225 85 241 73 q 204 119 209 96 q 189 284 189 208 q 229 531 189 408 q 166 552 193 536 q 123 596 138 567 q 107 671 107 625 q 123 711 107 694 q 163 727 140 727 q 203 711 186 727 q 219 671 219 694 q 271 640 219 643 q 326 756 298 698 q 396 908 363 829 q 454 1079 430 987 q 358 1036 427 1064 q 214 983 289 1008 q 87 951 120 951 q 25 980 43 951 q 14 1018 14 999 q 18 1042 14 1030 q 68 1070 30 1070 l 94 1069 q 202 1108 148 1069 q 312 1204 256 1147 q 406 1288 358 1250 q 543 1340 471 1340 q 643 1301 601 1340 q 688 1162 688 1259 q 635 891 688 1015 q 508 656 583 767 q 570 649 542 656 q 618 624 599 642 q 646 573 638 606 q 648 559 648 566 q 638 528 648 544 q 606 505 629 511 q 593 503 600 503 q 561 513 577 503 q 538 545 545 522 q 524 547 536 547 q 432 539 509 547 q 309 210 309 351 q 315 139 309 175 l 315 130 q 304 95 315 111 q 260 73 288 73 z "},"8":{"ha":706,"x_min":14,"x_max":672,"o":"m 365 58 q 241 82 313 58 q 109 192 170 105 q 54 403 54 273 q 56 491 54 413 q 160 775 59 569 q 18 994 35 898 q 14 1036 14 1016 q 63 1161 14 1105 q 210 1242 113 1217 q 326 1258 267 1258 q 437 1245 366 1258 q 580 1166 508 1233 q 661 979 652 1100 q 662 956 662 968 q 582 677 662 841 q 672 380 672 506 q 671 312 672 377 q 607 170 671 247 q 449 69 543 93 q 365 58 406 58 m 277 239 q 309 244 292 239 q 427 328 401 270 q 440 392 440 358 q 424 475 440 423 q 358 594 408 528 q 250 703 308 660 q 166 399 166 510 q 208 267 166 304 q 277 239 239 239 m 501 786 q 511 905 511 853 q 487 1035 511 975 q 380 1114 455 1114 q 322 1093 349 1114 q 290 1023 290 1067 q 294 982 290 1015 q 385 882 298 949 q 501 786 444 842 z "},"9":{"ha":642,"x_min":14,"x_max":608,"o":"m 328 9 l 328 9 q 108 138 233 9 q 92 176 92 157 q 134 231 92 216 q 149 233 142 233 q 189 215 170 233 q 246 184 220 184 q 285 202 260 184 q 334 299 310 220 q 281 292 307 292 q 153 349 214 292 q 54 528 92 406 q 14 817 14 658 q 46 1068 14 945 q 152 1269 79 1190 q 328 1343 221 1343 q 488 1236 423 1343 q 578 984 548 1137 q 608 663 608 832 q 577 345 608 494 q 484 102 546 195 q 328 9 422 9 m 286 401 q 366 453 322 401 q 381 693 381 570 q 379 795 381 713 q 354 984 378 878 q 287 1112 331 1091 q 257 1117 271 1117 q 186 1067 216 1117 q 140 819 140 992 q 149 682 140 764 q 186 515 157 599 q 261 408 216 431 q 286 401 273 401 z "},"\u0000":{"ha":0,"x_min":0,"x_max":0,"o":""}," ":{"ha":471,"x_min":0,"x_max":0,"o":""},"!":{"ha":283,"x_min":14,"x_max":249,"o":"m 100 187 q 45 243 48 187 l 14 1096 q 50 1142 15 1124 q 157 1166 97 1166 q 249 1120 244 1166 l 157 245 q 128 194 155 207 q 100 187 114 187 m 92 -9 q 52 15 66 -9 q 33 87 33 45 q 94 151 33 151 q 133 142 112 151 q 162 91 162 130 q 144 28 162 62 q 92 -9 127 -5 z "},"\"":{"ha":325,"x_min":14,"x_max":291,"o":"m 111 1025 q 37 1117 73 1028 q 14 1191 14 1173 q 31 1222 14 1212 q 83 1236 53 1236 q 101 1235 85 1236 q 138 1221 118 1234 q 151 1202 151 1213 q 145 1185 151 1194 q 123 1074 123 1149 q 121 1039 123 1053 q 111 1025 119 1025 m 251 1025 q 177 1117 214 1028 q 154 1191 154 1173 q 172 1222 154 1212 q 224 1236 193 1236 q 242 1235 225 1236 q 279 1221 258 1234 q 291 1202 291 1213 q 286 1185 291 1194 q 263 1074 263 1149 q 261 1039 263 1053 q 251 1025 259 1025 z "},"#":{"ha":1088,"x_min":14,"x_max":1054,"o":"m 681 203 q 625 260 629 203 l 623 401 l 368 402 l 359 261 q 331 210 358 223 q 304 203 317 203 q 248 260 252 203 l 246 402 l 74 403 q 22 429 36 403 q 14 458 14 444 q 22 490 14 470 q 67 515 30 510 l 245 526 l 241 880 l 90 880 q 39 906 53 880 q 31 936 31 921 q 39 967 31 947 q 85 991 47 987 l 239 1002 l 237 1200 q 281 1251 239 1238 q 325 1257 303 1257 q 412 1201 406 1257 l 401 1012 l 616 1026 l 614 1200 q 659 1251 616 1238 q 702 1257 680 1257 q 789 1201 783 1257 l 779 1036 l 1010 1051 q 1034 1025 1023 1050 q 1054 926 1054 979 q 1052 897 1054 916 q 1033 878 1049 879 l 770 878 l 753 559 l 993 574 q 1017 548 1006 574 q 1036 449 1036 501 q 1034 419 1036 437 q 1015 401 1031 401 l 745 401 l 736 261 q 708 210 735 223 q 681 203 694 203 m 375 534 l 621 550 l 618 879 l 393 880 l 375 534 z "},"$":{"ha":739,"x_min":14,"x_max":705,"o":"m 296 47 q 251 122 254 47 l 256 219 q 132 289 186 241 q 52 412 77 336 q 37 509 37 456 q 44 591 37 547 q 64 613 47 605 q 96 620 78 620 q 138 608 122 620 q 149 587 149 599 l 149 584 q 144 527 144 554 q 175 413 144 465 q 263 338 205 361 l 279 606 l 216 662 q 141 729 172 699 q 14 975 14 858 q 48 1081 14 1031 q 155 1162 83 1130 q 312 1200 226 1194 l 316 1267 q 364 1342 319 1318 q 431 1360 397 1360 q 472 1354 444 1360 q 505 1298 501 1348 l 488 1179 q 631 1095 572 1154 q 705 941 690 1036 l 705 939 q 691 917 705 927 q 654 906 677 906 q 618 914 633 906 q 600 936 602 922 q 473 1073 583 1045 l 422 705 q 531 603 479 655 q 617 495 583 550 q 652 382 651 440 q 609 275 652 318 q 498 213 566 233 q 389 199 446 199 q 351 200 370 199 l 341 123 q 318 56 340 73 q 296 47 307 47 m 291 831 l 304 1061 q 243 1017 265 1044 q 225 968 225 995 q 227 954 225 961 q 291 831 236 896 m 370 327 q 427 385 417 339 l 428 396 q 391 486 428 437 l 370 327 z "},"%":{"ha":807,"x_min":14,"x_max":773,"o":"m 255 192 q 174 263 214 192 q 155 327 155 296 q 157 350 155 338 l 494 1115 q 585 1167 513 1167 q 633 1157 611 1167 q 663 1116 663 1143 q 661 1101 663 1108 l 283 216 q 255 192 273 192 m 602 144 l 593 144 q 485 193 526 144 q 425 400 425 266 q 434 504 425 441 q 482 627 444 567 q 579 697 519 686 l 591 698 q 716 618 659 698 q 773 399 773 538 q 761 297 773 353 q 711 196 748 240 q 602 144 674 151 m 564 231 q 617 276 596 231 q 635 389 635 315 q 610 523 635 460 q 558 583 587 578 q 509 528 528 582 q 489 392 489 467 q 507 279 489 327 q 564 231 525 231 m 194 715 l 185 715 q 76 767 113 723 q 26 870 39 812 q 14 975 14 928 q 74 1194 16 1112 q 196 1270 127 1270 l 208 1269 q 305 1198 267 1258 q 363 974 363 1106 q 353 874 363 934 q 301 763 343 814 q 194 715 261 715 m 223 803 q 280 850 262 803 q 298 960 298 897 q 297 1005 298 966 q 277 1099 296 1044 q 229 1155 259 1154 q 178 1095 199 1150 q 153 956 153 1032 q 170 846 153 885 q 223 803 191 803 z "},"&":{"ha":538,"x_min":14,"x_max":505,"o":"m 191 156 q 153 218 155 156 l 153 231 q 33 349 75 255 l 33 351 q 71 392 33 372 q 106 403 92 403 q 118 397 115 403 q 148 367 133 380 l 139 589 q 130 588 135 589 q 120 587 125 587 q 81 612 92 587 q 72 655 72 633 q 76 688 72 665 q 102 721 80 711 l 134 733 l 124 983 q 78 947 96 973 q 63 941 72 941 q 22 962 41 941 q 14 980 14 971 q 16 989 14 985 q 121 1084 62 1054 l 116 1206 q 157 1268 119 1248 q 211 1282 184 1282 q 246 1278 222 1282 q 273 1232 270 1273 l 268 1107 q 388 1039 343 1095 q 422 936 422 997 q 412 859 422 916 q 299 688 403 803 q 482 533 442 614 q 505 446 505 488 q 481 362 505 413 q 385 266 458 311 q 228 219 311 221 q 209 163 227 178 q 191 156 199 156 m 254 800 q 302 884 302 844 q 300 909 302 887 q 261 959 298 932 l 254 800 m 248 321 q 321 353 290 321 q 362 458 362 394 q 338 538 362 498 q 245 593 314 578 l 233 321 l 248 321 z "},"'":{"ha":184,"x_min":14,"x_max":151,"o":"m 111 1025 q 37 1117 73 1028 q 14 1192 14 1173 q 31 1222 14 1212 q 84 1236 53 1236 q 102 1235 85 1236 q 138 1221 119 1234 q 151 1202 151 1213 q 145 1185 151 1194 q 123 1074 123 1149 q 121 1039 123 1053 q 111 1025 119 1025 z "},"(":{"ha":438,"x_min":14,"x_max":404,"o":"m 263 -31 q 243 -21 253 -31 q 139 174 189 41 q 56 474 90 307 q 14 874 14 682 q 147 1313 14 1201 q 272 1356 197 1356 q 363 1342 314 1356 q 404 1261 404 1326 q 390 1192 404 1224 q 345 1156 374 1156 l 335 1157 q 279 1164 305 1164 q 171 1102 213 1164 q 125 885 125 1034 q 153 620 125 763 q 228 352 181 477 q 326 168 275 227 q 341 119 341 149 q 339 91 341 113 q 321 32 338 69 q 283 -22 305 -5 q 263 -31 273 -31 z "},")":{"ha":438,"x_min":14,"x_max":404,"o":"m 155 -31 q 97 33 125 -31 q 77 119 77 78 q 92 168 77 149 q 190 352 143 227 q 266 627 237 477 q 292 885 292 763 q 291 968 292 896 q 241 1112 290 1040 q 138 1164 205 1164 q 83 1157 113 1164 l 73 1156 q 28 1192 44 1156 q 14 1260 14 1223 q 17 1299 14 1270 q 54 1342 20 1329 q 146 1356 104 1356 q 286 1301 221 1356 q 380 1112 350 1247 q 404 874 404 1004 q 400 742 404 843 q 362 474 396 642 q 279 174 328 307 q 175 -21 229 41 q 155 -31 165 -31 z "},"*":{"ha":182,"x_min":14,"x_max":148,"o":"m 121 1160 q 90 1192 119 1160 q 90 1177 90 1185 q 80 1168 90 1168 q 66 1172 73 1168 q 60 1183 60 1175 l 61 1200 q 25 1166 28 1166 q 18 1171 22 1166 q 14 1185 14 1176 q 18 1195 14 1191 l 51 1236 l 17 1275 q 14 1284 14 1278 q 20 1300 14 1294 q 25 1303 22 1303 q 67 1266 28 1303 l 71 1312 q 83 1322 71 1322 q 94 1312 94 1322 l 93 1287 q 127 1326 125 1326 q 142 1312 134 1326 q 148 1293 148 1301 q 145 1285 148 1288 l 98 1238 l 136 1204 q 140 1196 140 1201 q 135 1175 140 1185 q 121 1160 128 1160 z "},"+":{"ha":481,"x_min":14,"x_max":447,"o":"m 234 423 q 203 443 204 423 l 197 548 l 39 556 q 16 572 22 557 q 14 587 14 580 q 38 619 14 617 l 193 626 l 186 738 q 202 753 187 747 q 245 760 219 760 q 286 743 285 760 l 278 629 l 418 635 q 442 610 435 634 q 447 578 447 594 q 444 554 447 570 q 425 536 441 538 l 273 544 l 265 443 q 234 423 264 423 z "},",":{"ha":184,"x_min":14,"x_max":151,"o":"m 54 -77 q 43 -63 45 -77 q 41 -28 41 -50 q 19 83 41 47 q 14 100 14 92 q 31 122 14 111 q 81 134 48 134 q 133 120 111 134 q 151 89 151 110 q 128 15 151 71 q 54 -77 91 -74 z "},"-":{"ha":481,"x_min":14,"x_max":448,"o":"m 425 536 l 39 556 q 14 587 14 557 q 39 619 14 617 l 418 635 q 443 610 435 634 q 448 578 448 594 q 445 554 448 570 q 425 536 442 538 z "},".":{"ha":171,"x_min":14,"x_max":137,"o":"m 75 -24 q 29 -2 47 -24 q 14 43 14 17 q 29 87 14 68 q 75 110 47 110 q 121 87 102 110 q 137 43 137 68 q 121 -2 137 17 q 75 -24 102 -24 z "},"/":{"ha":615,"x_min":14,"x_max":581,"o":"m 146 79 q 108 84 137 79 q 42 121 79 89 q 14 171 14 144 q 16 188 14 179 l 473 1143 q 522 1177 491 1177 q 569 1156 551 1177 q 581 1124 581 1142 q 576 1097 581 1112 l 193 105 q 146 79 178 79 z "},":":{"ha":173,"x_min":14,"x_max":139,"o":"m 75 631 q 29 653 47 631 q 14 698 14 672 q 29 743 14 724 q 75 765 47 765 q 121 743 102 765 q 137 698 137 724 q 121 653 137 672 q 75 631 102 631 m 77 418 q 31 440 50 418 q 16 485 16 459 q 31 530 16 511 q 77 552 50 552 q 123 530 104 552 q 139 485 139 511 q 123 440 139 459 q 77 418 104 418 z "},";":{"ha":184,"x_min":14,"x_max":151,"o":"m 83 635 q 37 657 56 635 q 22 703 22 677 q 37 747 22 728 q 83 769 56 769 q 129 747 111 769 q 144 703 144 728 q 129 657 144 677 q 83 635 111 635 m 53 338 q 43 352 45 338 q 41 387 41 366 q 19 498 41 462 q 14 515 14 507 q 30 537 14 526 q 83 548 47 548 q 133 535 112 548 q 151 504 151 525 q 127 430 151 486 q 53 338 92 341 z "},"<":{"ha":570,"x_min":14,"x_max":536,"o":"m 410 305 q 388 311 399 305 q 216 429 336 346 q 20 575 34 553 q 14 600 14 587 q 45 650 14 633 l 447 941 q 463 944 455 944 q 497 926 479 944 q 527 871 515 907 q 536 816 536 842 q 534 787 536 808 q 507 753 532 766 l 180 591 l 483 485 q 503 439 503 468 q 452 328 503 381 q 410 305 431 305 z "},"=":{"ha":484,"x_min":14,"x_max":450,"o":"m 427 730 l 41 751 q 16 782 16 752 q 41 813 16 812 l 420 830 q 445 804 438 829 q 450 773 450 789 q 447 749 450 765 q 427 730 444 732 m 425 552 l 39 572 q 14 604 14 574 q 39 635 14 633 l 418 652 q 442 627 435 650 q 447 595 447 611 q 444 570 447 587 q 425 552 441 554 z "},">":{"ha":570,"x_min":14,"x_max":536,"o":"m 140 305 q 91 334 119 305 q 51 412 64 363 q 47 439 47 427 q 66 485 47 468 l 370 591 l 42 753 q 14 815 14 768 q 24 875 14 842 q 56 929 35 907 q 86 944 71 944 q 102 941 94 944 l 505 650 q 536 600 536 633 q 530 575 536 587 q 209 343 513 547 l 162 311 q 140 305 151 305 z "},"?":{"ha":726,"x_min":14,"x_max":692,"o":"m 276 181 q 210 229 235 181 q 188 374 188 313 q 193 435 188 392 q 305 634 201 514 q 425 810 383 726 q 452 908 452 869 q 437 959 452 930 q 353 993 420 993 q 224 952 281 993 q 150 843 167 912 q 145 806 145 825 q 181 697 145 753 q 191 667 191 682 q 188 647 191 661 q 165 619 185 633 q 134 610 150 610 q 115 612 129 610 q 87 635 101 615 q 14 857 14 749 q 23 950 14 877 q 132 1103 33 1023 q 393 1184 232 1183 q 578 1137 497 1183 q 685 995 659 1090 q 692 935 692 967 q 650 756 692 858 q 586 659 626 705 q 500 570 545 612 q 387 441 432 506 q 354 342 354 395 q 359 301 354 322 q 361 275 361 288 q 337 210 361 239 q 276 181 313 181 m 324 46 q 270 71 290 46 q 263 94 263 82 q 306 162 263 127 q 359 186 335 186 q 397 167 380 186 q 420 111 420 142 q 406 75 420 90 q 324 46 374 46 z "},"@":{"ha":996,"x_min":14,"x_max":962,"o":"m 418 198 q 347 200 413 198 q 193 275 280 202 q 60 463 106 348 q 14 707 15 578 q 84 1016 14 895 q 266 1194 155 1137 q 487 1248 371 1248 q 559 1246 494 1248 q 733 1184 625 1244 q 905 1009 842 1123 q 962 766 962 907 l 962 730 q 891 516 950 600 q 760 422 832 433 q 744 420 751 420 q 599 596 640 420 q 500 479 554 514 q 421 453 459 453 q 399 455 410 453 q 283 608 283 484 q 302 710 283 647 q 378 839 321 772 q 509 926 435 905 q 549 931 528 931 q 661 890 604 931 q 699 809 690 865 q 709 690 707 753 q 720 581 711 627 q 755 531 728 535 q 798 570 777 532 q 831 657 818 608 q 848 762 848 715 q 787 962 848 889 q 580 1055 712 1055 q 424 1019 508 1055 q 280 892 340 983 q 230 709 230 816 q 293 481 230 586 q 427 364 342 398 q 506 349 464 349 q 626 375 561 349 q 635 377 630 377 q 666 363 647 377 q 698 325 685 349 q 705 302 705 312 q 700 286 705 293 q 418 198 542 198 m 437 585 q 552 781 489 585 q 448 722 481 764 q 412 628 412 675 q 427 587 412 597 q 437 585 432 585 z "},"A":{"ha":1355,"x_min":0,"x_max":1321,"o":"m 1074 -43 q 995 -11 1028 -43 q 962 68 962 22 q 948 490 962 300 q 648 435 808 475 q 436 392 538 410 q 423 68 423 233 q 390 -11 423 22 q 311 -43 357 -43 q 232 -11 264 -43 q 199 68 199 22 q 211 381 199 233 q 100 418 147 389 q 26 500 52 446 q 0 641 0 555 q 17 681 0 665 q 56 697 33 697 q 96 681 79 697 q 113 641 113 665 q 222 494 113 515 q 361 1124 265 873 q 531 1419 434 1314 q 736 1524 629 1523 l 738 1523 q 945 1401 852 1523 q 1166 581 1112 1182 q 1321 324 1310 526 q 1306 284 1321 301 q 1266 267 1291 267 q 1227 282 1243 267 q 1209 320 1211 296 q 1177 427 1205 388 q 1187 68 1187 260 q 1154 -11 1187 22 q 1074 -43 1121 -43 m 448 507 q 623 545 533 524 q 939 602 827 591 q 875 1002 916 838 q 736 1306 820 1306 q 571 1045 651 1306 q 448 507 489 831 z "},"B":{"ha":1126,"x_min":0,"x_max":1093,"o":"m 195 7 q 131 28 163 7 q 86 94 98 48 q 28 391 50 245 q 0 778 0 579 q 71 1470 0 1065 q 117 1541 81 1516 q 182 1562 146 1562 q 201 1560 191 1562 q 273 1514 248 1551 q 294 1450 294 1485 q 285 1390 294 1432 q 566 1465 445 1465 q 651 1459 580 1465 q 797 1381 723 1454 q 882 1171 882 1296 q 826 982 882 1080 q 631 808 770 884 q 934 693 818 774 q 1082 510 1050 612 q 1093 446 1093 477 q 1036 299 1093 378 q 797 157 979 219 q 304 91 615 94 q 221 10 286 29 q 195 7 208 7 m 292 203 q 687 266 559 207 q 830 408 816 324 q 833 435 833 421 q 763 573 833 503 q 551 683 693 644 q 370 707 468 707 q 227 695 302 707 l 225 695 q 292 203 235 444 m 224 829 q 462 909 370 840 q 588 1069 553 979 q 609 1172 609 1124 q 593 1253 609 1202 q 492 1317 576 1303 q 465 1319 479 1319 q 263 1250 387 1319 q 224 829 229 1013 z "},"C":{"ha":753,"x_min":0,"x_max":720,"o":"m 293 -71 q 168 -9 230 -71 q 63 201 106 52 q 0 699 0 415 q 13 952 0 805 q 75 1252 26 1099 q 201 1486 123 1405 q 336 1546 260 1546 q 566 1407 454 1546 q 709 1149 650 1302 l 715 1133 q 720 1112 720 1122 q 683 1061 720 1075 q 663 1057 673 1057 q 611 1093 626 1057 l 605 1109 q 418 1367 506 1367 l 416 1367 q 319 1272 361 1360 q 250 1046 277 1183 q 214 652 214 855 q 226 437 214 552 q 278 233 238 321 q 385 137 317 144 l 391 137 q 613 368 484 137 q 662 396 629 396 q 689 389 675 396 q 718 340 718 372 q 711 313 718 327 q 526 54 612 138 q 359 -59 440 -30 q 293 -71 324 -71 z "},"D":{"ha":1066,"x_min":0,"x_max":1032,"o":"m 276 -39 q 134 -2 208 -39 q 20 157 60 34 q 0 312 0 222 q 7 429 0 366 q 25 462 11 450 q 58 473 40 473 q 97 454 82 473 q 107 422 107 439 l 107 416 q 98 286 98 342 q 112 172 98 216 q 219 73 141 73 q 353 121 276 73 q 514 258 429 168 q 667 458 598 349 q 774 675 736 567 q 821 949 821 823 q 817 1044 821 966 q 762 1221 813 1122 q 633 1364 710 1319 q 528 1394 583 1394 q 446 1380 501 1394 q 320 1266 391 1366 q 366 962 355 1125 q 372 753 372 860 q 317 283 372 330 q 251 259 289 259 q 174 295 204 259 q 151 364 151 325 l 151 370 q 170 761 170 573 q 165 949 170 857 q 62 1379 146 1222 q 49 1430 49 1404 q 56 1470 49 1443 q 101 1518 64 1497 q 151 1532 126 1532 q 190 1524 164 1532 q 238 1479 216 1516 q 283 1380 264 1432 q 600 1529 422 1529 q 759 1495 669 1529 q 929 1349 849 1461 q 1028 1059 1008 1236 q 1032 979 1032 1021 q 979 644 1032 830 q 821 315 922 456 q 598 85 720 173 q 276 -39 427 -39 z "},"E":{"ha":781,"x_min":0,"x_max":747,"o":"m 292 -22 q 137 68 201 -22 q 41 300 75 155 q 0 700 0 477 q 17 977 0 829 q 80 1265 35 1126 q 197 1485 126 1405 q 347 1560 261 1560 l 361 1559 q 531 1470 450 1548 q 669 1277 612 1393 q 742 1031 726 1160 q 747 961 747 996 q 710 772 747 871 q 557 600 674 673 q 233 522 441 527 q 266 264 239 371 q 378 119 301 119 q 440 136 401 119 q 550 224 479 153 q 599 252 567 252 q 627 244 613 252 q 654 196 654 226 q 646 168 654 182 q 292 -22 433 -22 m 231 633 q 492 696 400 638 q 635 970 635 785 q 627 1062 635 998 q 579 1210 618 1125 q 492 1343 540 1294 q 416 1385 451 1385 q 405 1384 410 1385 q 312 1252 351 1366 q 252 971 273 1137 q 231 633 231 806 z "},"F":{"ha":774,"x_min":0,"x_max":740,"o":"m 155 -107 q 108 -97 132 -107 q 50 -34 65 -76 q 43 4 43 -15 q 53 52 43 28 q 83 218 83 123 q 49 524 83 326 q 0 1043 0 836 q 24 1286 0 1189 q 96 1429 48 1383 q 205 1480 144 1474 q 234 1481 220 1481 q 431 1439 304 1481 q 574 1406 529 1406 q 637 1436 615 1406 q 684 1461 654 1461 q 715 1451 700 1461 q 740 1404 740 1433 q 730 1373 740 1388 q 637 1294 688 1311 q 570 1282 604 1282 q 434 1311 518 1282 q 328 1335 361 1335 q 286 1327 304 1335 q 214 1092 214 1298 q 217 989 214 1070 q 252 675 219 909 q 346 684 333 684 q 497 703 467 694 q 515 705 507 705 q 568 666 555 705 q 570 649 570 657 q 531 596 570 609 q 355 572 469 580 q 269 565 310 570 l 270 559 q 307 239 300 390 l 308 208 q 256 -42 308 76 q 193 -100 235 -85 q 155 -107 174 -107 z "},"G":{"ha":1098,"x_min":0,"x_max":1064,"o":"m 389 -68 q 163 13 252 -68 q 35 237 75 93 q 0 511 0 363 q 3 628 0 532 q 47 895 5 724 q 142 1157 81 1032 q 281 1369 203 1282 q 444 1476 359 1455 q 484 1480 464 1480 q 621 1418 549 1480 q 763 1169 694 1356 q 766 1150 766 1160 q 729 1097 766 1112 q 710 1094 719 1094 q 657 1131 672 1094 q 562 1279 612 1255 q 527 1288 545 1288 q 457 1253 496 1288 q 377 1139 418 1217 q 307 979 336 1061 q 221 526 221 743 q 235 376 221 457 q 298 228 248 294 q 437 144 348 161 q 480 141 458 141 q 631 175 548 141 q 794 276 714 208 q 920 421 875 344 q 954 530 954 483 q 945 579 954 545 q 886 645 937 613 q 715 690 815 690 q 647 683 680 690 q 663 645 662 667 q 647 605 663 621 q 602 588 631 588 q 506 652 538 595 q 479 755 479 701 q 496 798 479 783 q 536 814 513 814 q 586 782 570 814 q 715 804 645 804 q 796 798 736 804 q 937 745 856 792 q 1050 615 1018 699 q 1064 541 1064 581 q 1036 410 1064 481 q 885 190 986 296 q 658 14 783 84 q 389 -68 515 -68 z "},"H":{"ha":1120,"x_min":0,"x_max":1086,"o":"m 394 -154 q 357 -149 384 -154 q 302 -106 330 -144 q 170 326 191 57 q 111 250 122 308 q 89 214 106 227 q 56 203 75 203 q 10 227 27 203 q 0 259 0 241 l 1 269 q 165 445 27 419 l 165 483 q 179 794 165 629 q 215 1136 194 959 q 246 1427 234 1299 q 286 1503 252 1474 q 359 1529 318 1529 l 368 1529 q 444 1489 415 1522 q 469 1415 469 1457 l 469 1407 q 437 1110 454 1249 q 401 762 417 935 q 388 471 388 608 l 388 435 q 623 375 505 410 l 724 347 q 739 605 739 475 q 720 886 739 764 q 665 1043 701 998 q 639 1114 639 1076 q 641 1144 639 1120 q 679 1201 643 1169 q 751 1228 711 1228 q 780 1226 755 1228 q 836 1188 805 1223 q 930 961 899 1111 q 963 616 963 804 q 945 313 963 465 q 975 338 970 319 q 1000 372 981 361 q 1028 380 1013 380 q 1078 353 1061 380 q 1086 325 1086 340 q 1084 311 1086 318 q 927 200 1055 201 q 863 -36 903 68 q 804 -98 845 -80 q 760 -108 783 -108 q 719 -100 740 -108 q 657 -41 675 -82 q 648 3 648 -20 q 655 45 648 24 q 707 235 687 127 q 592 267 650 250 q 395 319 492 297 q 485 22 410 136 q 505 -41 505 -8 q 500 -78 505 -52 q 458 -134 496 -105 q 394 -154 427 -154 z "},"I":{"ha":488,"x_min":0,"x_max":454,"o":"m 398 -80 q 347 -45 361 -80 q 212 24 316 24 q 85 -8 139 24 q 56 -16 71 -16 q 8 11 26 -16 q 0 40 0 25 q 27 87 0 71 q 185 136 100 132 q 191 286 191 214 q 143 738 191 470 q 103 1101 103 967 q 114 1258 103 1178 q 96 1255 104 1255 q 66 1270 78 1255 q 50 1314 50 1289 q 51 1334 50 1317 q 85 1365 53 1351 q 208 1422 146 1391 q 332 1478 269 1453 q 346 1481 340 1481 q 382 1461 364 1481 q 410 1403 400 1440 q 417 1354 417 1377 q 414 1320 417 1343 q 345 1276 408 1286 q 326 1093 326 1181 q 349 839 326 994 q 374 555 374 665 q 361 377 374 480 q 297 124 349 273 q 389 77 347 109 q 450 -4 431 45 q 454 -25 454 -14 q 419 -76 454 -62 q 398 -80 408 -80 z "},"J":{"ha":678,"x_min":0,"x_max":644,"o":"m 353 -57 q 201 23 281 -57 q 75 286 121 102 q 48 511 48 389 q 64 713 48 606 q 86 750 68 736 q 120 761 101 761 q 165 738 148 761 q 176 706 176 724 l 175 696 q 167 574 167 637 q 174 447 167 528 q 208 267 181 366 q 268 114 234 168 q 318 74 293 74 q 335 79 326 74 q 418 646 418 145 q 409 989 418 814 q 389 1280 401 1163 q 271 1175 333 1221 q 130 1120 198 1120 q 16 1174 73 1120 q 0 1213 0 1192 q 16 1253 0 1235 q 56 1270 35 1270 q 95 1254 78 1270 q 134 1239 113 1239 q 383 1432 211 1239 q 413 1463 402 1453 q 486 1497 448 1497 q 510 1495 488 1497 q 563 1462 532 1493 q 602 1382 593 1432 q 630 1129 617 1289 q 644 771 644 953 q 624 418 644 591 q 552 118 604 245 q 406 -47 500 -9 q 353 -57 379 -57 z "},"K":{"ha":724,"x_min":0,"x_max":690,"o":"m 211 -107 q 176 -103 202 -107 q 120 -62 149 -99 q 28 206 57 28 q 0 586 0 375 q 30 1080 0 829 q 161 1580 84 1535 q 216 1595 187 1595 q 246 1591 231 1595 q 315 1539 292 1578 q 330 1485 330 1513 q 326 1454 330 1470 q 235 874 259 1199 q 332 957 276 904 q 452 1101 388 1010 q 583 1331 517 1191 q 614 1360 593 1352 q 633 1364 623 1364 q 656 1358 645 1364 q 686 1326 678 1348 q 690 1308 690 1317 q 684 1284 690 1296 q 531 1018 606 1120 q 282 770 416 862 q 250 762 270 762 q 243 761 243 762 q 317 627 283 700 q 382 483 351 555 q 444 345 415 404 q 493 271 472 286 l 495 271 q 493 274 494 271 q 491 279 492 276 q 490 283 490 282 q 491 288 490 286 q 538 315 508 315 q 568 307 553 315 q 595 259 595 290 q 587 230 595 244 q 490 159 542 159 q 354 275 415 159 q 279 438 317 347 q 224 563 252 500 q 243 257 224 388 q 300 71 262 126 q 322 5 322 40 q 318 -30 322 -3 q 277 -85 314 -56 q 211 -107 245 -107 z "},"L":{"ha":876,"x_min":0,"x_max":842,"o":"m 180 68 q 128 78 152 68 q 19 237 46 115 q 0 427 0 321 q 54 865 0 617 q 136 1174 90 1036 q 223 1375 182 1311 q 313 1426 258 1426 q 380 1404 347 1426 q 427 1341 414 1383 q 431 1315 431 1329 q 411 1253 431 1286 q 326 1050 369 1187 q 254 755 282 914 q 231 502 231 619 q 233 406 231 482 q 291 269 236 330 q 347 248 313 248 q 429 258 384 248 q 557 272 503 272 q 675 254 610 272 q 820 177 740 236 q 842 131 842 159 q 831 98 842 114 q 785 76 814 76 q 753 87 768 76 q 607 150 680 141 q 553 153 580 153 q 331 106 466 153 q 180 68 229 68 z "},"M":{"ha":1280,"x_min":0,"x_max":1246,"o":"m 1126 -77 q 1021 1 1040 -77 q 995 381 995 134 q 1002 780 995 576 q 1008 1112 1008 967 l 1008 1182 q 956 1109 991 1160 q 835 938 905 1034 q 701 768 765 841 q 603 690 637 695 q 249 1076 526 696 l 227 1105 l 250 99 q 218 24 249 54 q 140 -9 187 -7 q 60 21 92 -9 q 26 95 28 50 l 0 1258 q 64 1429 1 1394 q 99 1438 81 1438 q 157 1419 121 1438 q 241 1326 193 1400 q 369 1124 291 1245 q 514 906 448 1002 q 595 805 581 810 q 707 934 624 814 q 875 1194 789 1054 q 997 1405 960 1335 q 1095 1487 1040 1487 q 1189 1423 1147 1487 q 1232 1292 1222 1371 q 1246 1015 1246 1166 q 1232 574 1246 852 q 1221 218 1221 355 q 1240 43 1221 94 l 1241 26 q 1216 -41 1241 -13 q 1126 -77 1182 -77 z "},"N":{"ha":926,"x_min":0,"x_max":892,"o":"m 155 -80 q 91 -61 124 -80 q 48 13 58 -41 q 12 403 28 151 q 0 802 0 603 q 2 1006 0 854 q 41 1293 5 1158 q 136 1428 80 1415 q 155 1430 145 1430 q 250 1372 201 1430 q 328 1207 298 1314 q 399 904 355 1105 q 519 403 477 561 q 610 166 583 166 l 613 167 q 663 602 663 210 q 662 734 663 629 q 648 992 661 840 q 612 1194 634 1145 q 598 1249 598 1223 q 661 1343 598 1310 q 715 1357 686 1357 q 756 1351 728 1357 q 863 1100 827 1336 q 892 692 892 914 q 880 434 892 576 q 831 162 869 292 q 727 -25 793 32 q 656 -54 690 -54 q 538 33 594 -54 q 466 220 510 79 q 280 892 406 410 q 206 1171 233 1076 l 206 1168 q 233 635 206 1120 q 269 47 262 105 q 271 27 271 37 q 245 -43 271 -14 q 155 -80 212 -80 z "},"O":{"ha":901,"x_min":0,"x_max":867,"o":"m 563 -117 l 552 -117 q 395 -20 458 -106 q 299 185 333 66 q 256 415 265 304 q 193 397 227 397 q 169 398 190 397 q 118 422 149 399 q 0 694 1 518 q 77 1026 1 857 q 269 1314 154 1196 q 537 1449 399 1444 q 546 1448 543 1449 q 793 1261 710 1447 q 867 758 867 1106 q 856 532 867 654 q 772 107 833 284 q 563 -117 693 -117 m 480 76 q 495 79 488 76 q 563 178 535 98 q 633 553 612 319 q 642 681 642 642 q 644 807 644 732 q 586 1186 637 1078 q 542 1246 559 1246 l 541 1246 q 435 1178 499 1242 q 286 951 347 1087 q 223 696 224 816 q 258 583 224 623 q 323 736 273 690 q 394 764 356 764 q 424 762 399 764 q 499 711 448 760 q 514 676 514 696 l 514 665 q 496 640 513 654 q 458 626 479 626 q 418 642 434 626 q 403 659 406 654 q 400 662 401 662 q 367 548 376 637 q 366 518 366 536 q 370 421 366 486 q 388 267 373 355 q 429 122 402 179 q 480 76 450 76 z "},"P":{"ha":911,"x_min":0,"x_max":877,"o":"m 190 -142 q 138 -131 169 -142 q 87 -68 107 -119 q 7 429 24 125 q 0 650 0 540 q 133 1513 0 1219 q 228 1576 167 1576 q 310 1545 273 1576 q 347 1465 347 1514 l 346 1453 q 468 1472 410 1472 q 616 1437 534 1472 q 766 1295 697 1401 q 862 1052 836 1190 q 877 898 877 975 q 862 734 877 836 q 773 514 846 632 q 569 330 700 396 q 303 273 458 273 q 245 275 275 273 q 300 5 264 112 q 307 -37 307 -18 q 289 -93 307 -64 q 230 -136 271 -121 q 190 -142 210 -142 m 250 389 q 476 464 385 389 q 613 663 567 539 q 659 922 659 787 q 616 1164 659 1056 q 493 1317 574 1272 q 412 1337 456 1337 q 295 1309 359 1337 q 224 651 224 1048 q 233 389 224 519 l 250 389 z "},"Q":{"ha":885,"x_min":0,"x_max":851,"o":"m 705 -218 q 686 -214 696 -218 q 624 -178 656 -197 q 498 -114 562 -138 q 443 -104 470 -104 q 372 -121 407 -104 q 345 -127 359 -127 q 296 -98 313 -127 q 290 -72 290 -85 q 319 -22 290 -39 l 320 -22 q 269 49 293 8 l 264 49 q 106 124 168 49 q 0 553 0 255 q 7 708 0 600 q 54 985 14 817 q 158 1294 94 1154 q 306 1516 222 1434 q 479 1596 386 1596 q 617 1539 547 1596 q 739 1371 683 1485 q 827 1078 794 1258 q 851 776 851 935 l 851 759 q 796 290 847 477 q 667 4 745 102 q 777 -39 726 -12 q 800 -84 800 -54 q 753 -191 800 -140 q 705 -218 730 -218 m 423 112 q 515 180 469 112 q 593 394 562 248 q 627 776 627 552 q 606 1041 627 913 q 529 1274 576 1197 q 408 1368 469 1368 q 317 1314 364 1368 q 225 1148 269 1261 q 153 898 182 1036 q 113 532 113 707 q 128 351 113 445 q 192 196 142 257 q 212 177 201 185 q 154 591 154 350 q 159 744 154 664 q 215 967 169 889 q 315 1034 256 1034 q 394 1006 351 1034 q 420 959 420 989 q 411 929 420 944 q 363 903 394 903 q 334 911 348 903 q 322 916 328 916 q 310 907 315 916 q 271 736 279 854 q 266 574 266 650 q 336 180 266 302 q 337 181 336 181 q 339 182 338 182 q 365 188 352 188 q 414 157 398 188 q 420 132 420 144 q 416 113 420 122 l 423 112 z "},"R":{"ha":970,"x_min":0,"x_max":936,"o":"m 171 -98 q 109 -79 141 -98 q 64 -15 77 -60 q 0 578 0 237 q 3 734 0 656 q 131 1503 28 1210 q 189 1566 148 1547 q 235 1577 212 1577 q 274 1570 254 1577 q 337 1512 318 1552 q 348 1465 348 1489 q 341 1426 348 1446 q 332 1401 336 1414 q 546 1458 438 1458 q 577 1457 562 1458 q 812 1354 726 1442 q 936 1017 936 1225 q 912 839 936 945 q 805 624 888 733 q 587 467 721 515 q 437 444 519 444 q 300 458 373 444 q 422 277 352 374 q 558 113 492 180 q 666 45 625 45 q 689 53 675 45 q 718 61 704 61 q 767 32 749 61 q 774 5 774 18 q 745 -44 774 -27 q 671 -66 706 -66 q 530 -5 608 -66 q 373 153 452 56 q 232 349 294 251 q 281 41 245 181 q 284 12 284 26 q 265 -50 284 -18 q 200 -95 246 -82 q 171 -98 185 -98 m 371 567 q 432 571 382 567 q 536 614 483 574 q 651 764 606 670 q 710 1019 710 886 q 571 1312 710 1219 q 476 1341 527 1341 q 412 1332 458 1341 q 289 1237 366 1323 q 227 724 241 1010 q 224 606 224 665 q 371 567 293 567 z "},"S":{"ha":766,"x_min":0,"x_max":732,"o":"m 395 -155 q 213 -93 306 -155 q 64 122 121 -31 q 24 381 24 229 q 32 520 24 446 q 52 556 35 543 q 87 570 68 570 q 132 549 115 570 q 143 514 143 534 l 143 508 q 138 412 138 456 q 171 216 138 306 q 263 86 203 127 q 340 58 304 58 q 392 72 358 58 q 438 167 427 86 l 439 186 q 407 322 439 246 q 213 642 355 444 q 135 758 168 707 q 0 1176 0 978 q 54 1395 0 1299 q 208 1536 108 1491 q 349 1567 277 1567 q 623 1431 510 1567 q 732 1122 711 1323 l 732 1118 q 719 1080 732 1097 q 677 1061 703 1061 q 640 1075 656 1061 q 621 1112 623 1088 q 539 1314 605 1255 q 420 1362 484 1362 q 270 1293 332 1362 q 224 1163 224 1241 l 225 1144 q 326 876 238 1017 q 422 731 370 805 q 542 551 484 644 q 637 361 600 458 q 676 161 674 264 q 602 -62 674 19 q 395 -155 519 -155 z "},"T":{"ha":1036,"x_min":0,"x_max":1002,"o":"m 593 -221 q 240 58 347 -221 q 153 658 153 285 q 156 809 153 695 q 181 1103 159 922 q 138 1099 159 1099 q 64 1115 102 1099 q 3 1196 26 1131 q 0 1214 0 1205 q 39 1267 0 1253 q 56 1270 47 1270 q 109 1231 95 1270 q 145 1214 115 1214 q 197 1221 166 1214 q 299 1697 244 1533 q 355 1761 315 1742 q 404 1773 378 1773 q 440 1767 422 1773 q 505 1711 485 1751 q 517 1663 517 1688 q 511 1626 517 1645 q 427 1286 465 1491 q 513 1298 473 1298 q 604 1281 552 1298 q 683 1164 655 1265 q 684 1149 684 1156 q 675 1118 684 1134 q 642 1095 665 1102 q 629 1094 635 1094 q 597 1104 613 1094 q 574 1137 581 1114 q 523 1182 562 1177 q 502 1183 513 1183 q 406 1166 466 1183 q 368 713 368 930 q 385 449 368 590 q 457 175 401 307 q 615 -31 513 43 q 715 -68 667 -68 q 756 -64 724 -68 q 831 6 789 -59 q 891 203 873 72 q 912 240 895 226 q 947 252 928 252 q 991 231 974 252 q 1002 195 1002 215 l 1002 189 q 870 -97 977 14 q 593 -221 750 -221 z "},"U":{"ha":910,"x_min":0,"x_max":876,"o":"m 733 -89 q 703 -86 718 -89 q 547 32 600 -68 q 418 -16 492 -14 q 68 348 165 -14 q 0 979 0 605 q 8 1300 0 1149 q 47 1381 12 1355 q 119 1405 79 1405 q 145 1404 121 1405 q 200 1375 169 1403 q 232 1292 232 1346 q 230 1255 232 1276 q 218 857 218 1011 q 221 680 218 793 q 242 423 223 567 q 302 189 260 279 q 416 96 344 98 q 538 393 505 101 q 561 876 561 593 q 559 1009 561 919 q 553 1200 557 1100 q 544 1330 548 1299 l 543 1345 q 571 1419 543 1390 q 659 1455 604 1455 q 725 1433 692 1455 q 767 1358 758 1412 q 780 1153 775 1293 q 782 1032 782 1096 q 776 803 782 942 q 743 492 770 665 q 659 189 715 320 l 660 180 l 659 170 q 657 143 657 156 q 699 57 657 83 q 734 45 718 45 q 743 49 742 45 q 764 96 744 77 q 812 114 783 114 q 858 93 840 112 q 876 46 876 73 q 849 -37 876 -3 q 784 -81 824 -68 q 733 -89 760 -89 z "},"V":{"ha":1148,"x_min":0,"x_max":1114,"o":"m 545 -56 l 543 -56 q 372 93 450 -56 q 283 338 321 196 q 215 629 246 480 q 138 941 178 804 q 43 1126 98 1078 q 0 1208 0 1162 q 26 1282 0 1249 q 94 1325 52 1316 q 113 1327 103 1327 q 181 1301 146 1327 q 344 1074 291 1212 q 415 778 397 935 q 439 472 433 620 q 455 264 445 357 q 490 115 465 171 q 555 56 519 56 q 644 117 601 56 q 761 407 711 217 q 840 802 810 597 q 887 1270 887 1120 q 883 1308 887 1302 q 827 1404 827 1342 q 842 1461 827 1433 q 939 1516 877 1516 q 996 1501 968 1516 q 1104 1319 1082 1448 q 1114 1190 1114 1259 q 1095 978 1114 1109 q 1016 665 1075 846 q 881 324 958 483 q 726 63 804 165 q 545 -56 635 -56 z "},"W":{"ha":1324,"x_min":0,"x_max":1290,"o":"m 899 -113 q 778 -19 834 -113 q 679 249 722 75 q 614 647 636 422 q 595 831 604 743 q 476 302 545 488 q 334 65 408 117 q 264 40 298 40 q 175 84 227 40 q 75 272 123 128 q 7 622 26 416 q 0 802 0 709 q 20 1123 0 930 q 119 1574 39 1316 q 222 1651 146 1651 q 324 1596 289 1651 q 338 1546 338 1573 q 332 1506 338 1527 q 259 1166 285 1353 q 222 629 222 906 q 259 222 222 356 q 302 155 277 155 q 329 168 309 155 q 391 338 349 180 q 481 824 433 495 q 499 928 488 877 q 524 1118 524 1053 q 518 1192 524 1156 q 517 1214 517 1203 q 547 1290 517 1257 q 633 1324 580 1324 q 715 1283 679 1324 q 771 1147 749 1240 q 836 669 805 1004 q 880 321 857 460 q 957 102 914 107 q 1023 208 996 105 q 1063 468 1049 310 q 1082 917 1082 677 q 1060 1282 1082 1193 q 981 1345 1005 1297 q 969 1393 969 1369 q 983 1444 969 1418 q 1053 1501 1006 1485 q 1099 1510 1076 1510 q 1165 1496 1125 1510 q 1244 1420 1205 1483 q 1290 1135 1290 1337 q 1277 892 1290 1036 q 1228 572 1263 749 q 1143 243 1193 395 q 1033 -5 1093 91 q 907 -112 972 -102 l 899 -113 z "},"X":{"ha":844,"x_min":0,"x_max":810,"o":"m 87 -35 q 69 -32 83 -35 q 41 -7 56 -30 q 33 21 33 7 q 52 63 33 45 q 161 393 103 118 l 175 453 q 98 663 138 532 q 29 943 58 794 q 0 1226 0 1094 q 41 1432 0 1354 q 89 1460 58 1460 q 136 1436 120 1460 q 146 1403 146 1421 l 146 1398 q 142 1316 142 1357 q 177 1067 142 1201 q 268 787 212 933 q 384 1098 318 948 q 534 1359 450 1248 q 724 1516 618 1470 q 755 1523 740 1523 q 780 1519 764 1523 q 807 1487 796 1515 q 810 1468 810 1478 q 783 1420 810 1436 q 519 945 652 1334 q 422 649 463 784 q 378 511 397 566 q 439 378 421 414 q 587 187 529 187 l 599 188 q 629 179 614 188 q 654 132 654 164 q 630 86 654 104 q 559 64 596 64 q 483 84 532 64 q 377 158 435 104 q 287 258 319 213 q 205 80 245 153 q 87 -35 142 -35 z "},"Y":{"ha":1023,"x_min":0,"x_max":989,"o":"m 562 -194 q 350 -103 469 -194 q 328 -59 328 -85 q 340 -24 328 -41 q 385 -3 358 -3 q 419 -14 403 -3 q 519 -56 475 -56 q 595 -22 550 -56 q 679 139 640 11 q 738 438 718 267 q 764 786 758 609 q 635 342 720 551 q 353 26 517 50 q 330 24 341 24 q 176 95 241 24 q 72 295 111 165 q 0 884 0 528 q 11 1184 0 1055 q 38 1388 22 1314 q 144 1475 60 1475 q 185 1469 157 1475 q 240 1429 214 1463 q 260 1369 260 1404 q 257 1341 260 1356 q 235 1154 243 1277 q 228 937 228 1053 q 229 821 228 909 q 246 593 230 733 q 298 354 262 453 q 395 233 334 256 q 410 231 402 231 q 490 292 450 231 q 622 661 560 402 q 659 825 656 806 q 732 1264 716 1082 q 737 1350 737 1311 q 730 1438 737 1400 q 724 1489 724 1464 q 735 1555 724 1517 q 810 1610 747 1593 q 833 1613 822 1613 q 979 1379 950 1613 q 989 1119 989 1282 q 943 486 989 789 q 753 -86 884 90 q 562 -194 673 -194 z "},"Z":{"ha":947,"x_min":0,"x_max":913,"o":"m 119 -100 q 73 -99 115 -100 q 7 -28 31 -97 q 0 21 0 -7 q 36 174 0 82 q 165 436 81 283 q 347 760 249 589 q 496 1015 383 819 q 678 1366 678 1328 l 678 1369 q 661 1374 672 1374 q 549 1325 631 1374 q 359 1171 468 1277 q 184 935 250 1065 q 153 907 174 914 q 134 903 144 903 q 111 909 123 903 q 78 958 78 924 q 83 983 78 970 q 206 1217 137 1099 q 368 1429 275 1335 q 583 1570 460 1524 q 729 1598 667 1598 q 820 1578 767 1598 q 888 1472 873 1558 q 892 1426 892 1450 q 857 1259 892 1353 q 723 972 808 1130 q 541 648 637 814 q 296 204 395 395 q 511 237 366 237 q 714 219 607 237 q 886 156 821 200 q 913 100 913 134 q 893 63 913 77 q 869 56 884 56 q 820 69 850 56 q 731 85 782 85 q 629 73 698 85 q 464 25 560 61 q 311 -41 368 -11 q 119 -100 198 -100 z "},"[":{"ha":370,"x_min":14,"x_max":336,"o":"m 143 117 q 116 118 137 117 q 72 144 94 119 q 48 233 49 169 l 14 1169 q 54 1247 15 1222 q 146 1279 93 1272 q 243 1288 199 1286 l 268 1289 q 317 1246 304 1288 q 323 1204 323 1225 q 268 1111 323 1119 q 227 1118 251 1111 q 178 1126 199 1126 q 155 1101 156 1126 l 168 314 q 188 294 169 300 q 221 290 203 290 q 243 291 227 290 q 278 304 258 292 q 300 311 290 311 q 322 297 313 311 q 336 239 336 275 l 336 218 q 317 165 336 198 q 256 127 297 132 l 210 123 q 143 117 175 117 z "},"\\":{"ha":529,"x_min":14,"x_max":495,"o":"m 370 39 l 367 39 q 307 73 321 39 l 16 1091 q 14 1112 14 1102 q 28 1147 14 1134 q 71 1164 47 1164 q 92 1162 75 1164 q 123 1124 109 1160 l 494 128 q 495 116 495 122 q 457 64 495 87 q 370 39 419 41 z "},"]":{"ha":372,"x_min":14,"x_max":338,"o":"m 219 117 l 207 117 q 140 123 176 117 l 94 127 q 33 166 53 132 q 14 239 14 199 q 28 297 14 275 q 51 311 37 311 q 72 304 60 311 q 130 290 96 290 q 165 295 148 290 q 182 314 182 300 l 195 1101 q 172 1126 194 1126 q 123 1118 151 1126 q 82 1111 99 1111 q 33 1160 45 1116 q 27 1204 27 1182 q 82 1289 27 1287 q 85 1289 83 1289 q 185 1278 127 1287 q 290 1241 244 1269 q 338 1155 335 1213 l 302 233 q 278 144 301 169 q 219 117 256 119 z "},"^":{"ha":327,"x_min":14,"x_max":293,"o":"m 73 1002 q 26 1022 47 1002 q 14 1046 14 1033 q 16 1056 14 1050 l 154 1268 q 175 1284 161 1284 q 187 1280 181 1284 q 244 1167 197 1270 l 291 1065 q 293 1055 293 1060 q 279 1028 293 1042 q 243 1008 265 1013 q 234 1006 238 1006 q 212 1019 220 1006 l 175 1192 l 96 1015 q 73 1002 88 1002 z "},"_":{"ha":481,"x_min":14,"x_max":448,"o":"m 425 12 l 39 33 q 14 64 14 35 q 39 96 14 94 l 418 113 q 443 87 435 111 q 448 56 448 71 q 445 31 448 47 q 425 12 442 14 z "},"`":{"ha":254,"x_min":14,"x_max":220,"o":"m 197 1061 q 94 1104 161 1061 q 36 1146 58 1127 q 14 1184 14 1165 q 19 1208 14 1193 q 51 1243 24 1224 q 101 1262 77 1262 q 130 1242 122 1262 q 140 1202 136 1214 q 192 1118 152 1173 q 220 1072 220 1082 q 197 1061 220 1061 z "},"a":{"ha":623,"x_min":14,"x_max":590,"o":"m 444 66 q 418 68 441 66 q 363 98 395 69 q 253 77 307 77 q 156 93 217 77 q 47 186 95 108 q 14 321 14 240 q 93 568 14 461 q 224 680 147 642 q 344 707 281 707 q 385 705 364 707 q 351 790 380 773 q 337 793 345 793 q 259 743 309 793 q 209 711 243 711 q 184 718 197 711 q 153 767 153 734 q 159 793 153 780 q 365 976 282 943 q 425 989 397 989 q 505 948 466 989 q 566 804 544 907 q 590 537 590 689 q 581 336 590 437 q 555 170 571 235 q 516 90 551 115 q 444 66 484 66 m 300 197 q 334 204 316 197 l 343 258 q 385 588 377 460 l 378 588 q 310 549 339 588 q 264 456 281 511 q 235 301 235 362 q 252 226 235 255 q 300 197 269 197 z "},"b":{"ha":718,"x_min":14,"x_max":684,"o":"m 155 -52 q 93 -33 125 -52 q 48 31 61 -14 q 14 396 14 173 q 60 1065 14 713 q 102 1139 67 1112 q 172 1162 132 1162 q 260 1118 226 1162 q 282 1051 282 1089 l 281 1036 q 251 732 262 889 q 299 734 275 734 q 476 703 385 734 q 629 591 567 672 q 684 404 684 517 q 632 231 684 310 q 496 116 586 161 q 268 61 406 70 q 245 -7 268 23 q 155 -52 212 -52 m 248 186 q 378 269 328 210 q 432 401 428 328 q 377 543 432 484 q 243 610 323 601 q 237 401 237 509 q 248 186 237 279 z "},"c":{"ha":536,"x_min":14,"x_max":502,"o":"m 304 8 q 235 18 287 8 q 119 106 183 28 q 28 295 55 183 q 14 415 14 354 q 31 558 14 470 q 138 749 49 647 q 395 910 227 852 q 437 918 418 918 q 473 909 458 918 q 497 875 497 897 q 492 850 497 869 q 425 801 488 831 q 311 690 353 765 q 248 433 248 578 q 257 329 248 390 q 302 216 267 267 q 382 172 334 172 l 394 172 q 430 174 414 174 q 498 147 486 174 q 502 133 502 140 q 452 64 502 104 q 304 8 376 8 z "},"d":{"ha":680,"x_min":14,"x_max":646,"o":"m 469 -60 q 431 -54 450 -60 q 357 44 363 -26 q 136 110 219 46 q 26 272 53 173 q 14 366 14 317 q 37 504 14 420 q 151 679 61 587 q 391 819 240 770 q 338 1023 368 938 q 332 1060 332 1042 q 348 1117 332 1085 q 408 1165 363 1149 q 446 1171 428 1171 q 503 1156 471 1171 q 551 1096 534 1141 q 614 844 587 991 q 646 477 646 665 q 574 15 646 220 q 517 -49 557 -30 q 469 -60 494 -60 m 386 166 q 422 477 422 317 q 410 695 422 589 q 294 564 335 646 q 247 373 247 472 q 278 241 247 301 q 386 166 310 181 z "},"e":{"ha":536,"x_min":14,"x_max":503,"o":"m 248 -33 l 242 -33 q 102 58 155 -26 q 27 273 48 143 q 14 448 14 359 q 21 589 14 495 q 70 798 28 682 q 184 970 112 913 q 283 1006 228 1006 q 357 992 318 1006 q 456 912 416 970 q 503 748 503 844 q 467 582 503 672 q 336 369 414 460 q 246 290 292 319 q 270 190 254 231 q 328 130 292 130 q 404 172 359 130 q 442 189 422 189 q 496 146 481 189 q 499 130 499 138 q 482 92 499 111 q 248 -33 354 -33 m 237 428 l 252 443 q 363 625 319 521 q 396 753 396 709 q 395 768 396 761 q 366 806 389 806 q 357 804 361 806 q 290 734 316 791 q 250 595 263 677 q 237 428 237 513 z "},"f":{"ha":657,"x_min":14,"x_max":623,"o":"m 298 -60 q 258 -54 286 -60 q 203 -8 231 -47 l 201 -3 q 200 -2 200 -3 q 199 -2 200 -2 q 45 346 95 168 q 14 563 14 460 q 33 726 14 622 q 182 925 52 831 q 568 1023 313 1020 q 607 1007 591 1023 q 623 967 623 991 q 607 928 623 944 q 568 911 591 911 q 309 736 368 909 q 281 559 281 659 q 299 382 281 470 l 481 383 q 521 367 505 382 q 538 328 537 351 q 522 288 537 304 q 482 271 506 272 l 326 271 q 391 115 357 172 l 391 114 l 391 115 l 392 113 q 410 53 410 84 q 404 13 410 41 q 358 -41 397 -15 q 298 -60 328 -60 z "},"g":{"ha":729,"x_min":14,"x_max":695,"o":"m 441 -56 q 342 -41 396 -56 q 309 -14 320 -34 q 302 12 302 -1 q 332 62 302 45 q 358 68 345 68 q 374 66 366 68 q 387 64 381 64 q 460 233 446 64 q 340 207 400 207 q 218 240 284 207 q 97 363 152 273 q 23 564 43 453 q 14 671 14 618 q 30 807 14 726 q 112 962 45 888 q 297 1052 179 1036 q 327 1054 312 1054 q 406 1040 367 1054 q 458 1133 409 1105 q 520 1149 488 1149 q 577 1138 541 1149 q 629 1057 614 1126 q 688 620 671 837 q 695 450 695 534 q 691 310 695 400 q 651 118 686 220 q 542 -30 616 16 q 441 -56 500 -56 m 416 336 q 465 367 441 336 q 425 905 463 600 q 366 929 393 929 q 336 921 351 929 q 239 695 239 865 q 253 571 239 648 q 311 420 267 495 q 412 336 355 345 l 416 336 z "},"h":{"ha":699,"x_min":14,"x_max":665,"o":"m 204 -60 q 145 -43 177 -60 q 98 20 113 -25 q 14 660 14 315 q 60 1113 14 921 q 111 1182 73 1159 q 168 1198 138 1198 q 196 1194 182 1198 q 265 1143 242 1181 q 281 1087 281 1117 q 277 1059 281 1074 q 239 747 245 928 q 336 759 291 759 q 480 716 410 759 q 598 569 551 673 q 665 207 665 416 q 661 107 665 156 q 618 28 654 53 q 551 7 587 7 q 520 10 545 7 q 465 43 495 12 q 437 117 437 70 q 439 140 437 130 q 452 350 452 261 q 439 494 452 420 q 379 611 427 568 q 302 638 350 638 q 237 628 273 638 l 238 576 q 313 84 246 317 q 317 51 317 67 q 300 -9 317 23 q 237 -56 283 -41 q 204 -60 220 -60 z "},"i":{"ha":325,"x_min":14,"x_max":291,"o":"m 157 20 q 118 50 132 20 q 110 96 110 67 l 111 113 q 111 144 111 127 q 100 307 111 201 q 68 531 88 412 q 34 711 49 650 q 25 778 25 748 q 42 845 25 811 q 99 888 58 878 q 124 892 112 892 q 186 873 152 892 q 241 802 220 854 q 291 513 291 661 q 272 311 291 417 q 189 32 227 61 q 157 20 173 20 m 109 903 q 40 933 67 903 q 14 1004 14 963 q 39 1072 14 1043 q 109 1104 68 1104 q 179 1072 151 1104 q 205 1004 205 1043 q 178 933 205 963 q 109 903 151 903 z "},"j":{"ha":559,"x_min":14,"x_max":525,"o":"m 205 -64 q 17 116 85 -64 q 14 135 14 126 q 50 187 14 174 q 70 191 60 191 q 122 154 107 191 q 203 100 170 100 q 239 120 224 100 q 281 268 267 157 q 296 524 296 378 q 281 760 296 652 q 235 904 267 867 q 115 945 197 945 l 87 944 q 50 958 66 944 q 31 998 31 974 q 44 1037 31 1020 q 82 1055 58 1053 q 240 1074 173 1064 q 367 1087 324 1087 q 440 1071 411 1087 q 512 896 492 1034 q 525 701 525 807 q 517 521 525 642 q 466 240 509 399 q 346 3 422 81 q 205 -64 277 -64 z "},"k":{"ha":607,"x_min":14,"x_max":573,"o":"m 148 26 q 99 54 115 26 q 91 82 91 66 q 92 96 91 89 q 103 336 103 153 q 102 454 103 347 q 86 698 102 562 q 51 928 71 835 q 22 1031 31 1021 q 14 1063 14 1040 q 38 1109 14 1095 q 75 1119 55 1119 q 102 1115 83 1119 q 141 1086 121 1112 q 274 676 260 921 q 304 699 289 688 q 422 800 375 747 q 463 821 441 821 q 487 816 469 821 q 517 784 505 811 q 523 764 523 774 q 509 728 523 746 q 374 611 455 669 q 289 543 327 576 q 325 451 298 515 q 388 331 353 387 q 454 273 423 275 q 474 283 465 273 q 515 302 494 302 q 569 264 553 302 q 573 245 573 255 q 557 208 573 227 q 450 158 513 158 q 348 193 401 158 q 249 298 294 228 q 201 69 227 174 q 176 35 195 46 q 148 26 163 26 z "},"l":{"ha":345,"x_min":14,"x_max":311,"o":"m 163 45 q 90 55 125 45 q 43 126 54 65 q 14 684 14 338 q 22 1006 14 868 q 62 1087 27 1062 q 133 1110 94 1110 q 161 1109 137 1110 q 215 1079 184 1107 q 245 1000 245 1050 l 245 993 q 192 591 207 774 q 165 162 176 408 l 241 159 q 311 104 311 154 q 298 68 311 89 q 252 47 286 48 l 229 47 q 194 46 211 47 q 163 45 177 45 z "},"m":{"ha":1109,"x_min":14,"x_max":1076,"o":"m 316 -32 q 257 -15 289 -32 q 210 47 225 1 q 182 313 188 121 q 180 378 180 346 q 205 689 180 535 q 190 747 203 730 q 179 752 186 752 q 142 728 165 752 q 67 684 98 684 q 44 688 63 684 q 16 730 26 692 q 14 751 14 741 q 31 813 14 781 q 176 924 99 924 q 267 880 226 924 q 365 946 306 946 q 479 851 420 946 q 594 541 539 756 q 766 967 675 867 q 848 1013 808 1013 q 953 937 909 1013 q 1026 731 998 861 q 1076 210 1076 507 l 1074 132 q 1037 82 1071 95 q 1002 75 1019 75 q 936 130 939 75 q 939 354 939 254 q 931 610 939 487 q 886 736 922 736 q 824 614 855 736 q 770 230 792 491 q 714 129 762 156 q 659 113 687 113 q 601 129 637 113 q 545 216 564 144 l 534 269 q 509 407 525 324 q 474 569 494 489 q 431 701 454 650 q 391 745 411 745 q 385 744 388 745 q 355 622 355 726 q 369 429 355 538 q 399 228 382 320 q 424 113 416 136 q 429 79 429 96 q 412 20 429 52 q 350 -27 395 -12 q 316 -32 332 -32 z "},"n":{"ha":829,"x_min":14,"x_max":795,"o":"m 201 -23 q 81 111 111 -23 q 14 680 14 458 q 24 871 14 730 q 131 1050 35 1013 q 154 1054 142 1054 q 264 998 197 1054 q 421 812 331 941 q 606 504 511 684 q 529 928 583 714 q 526 958 526 943 q 545 1020 526 987 q 610 1065 564 1052 q 638 1068 625 1068 q 701 1048 668 1068 q 746 983 734 1029 q 786 727 772 876 q 795 520 795 624 q 791 374 795 473 q 753 159 787 274 q 680 50 725 76 q 645 39 661 39 q 604 61 623 39 q 586 132 586 83 q 592 198 586 161 q 593 219 593 208 q 566 342 593 264 q 489 516 539 420 q 384 691 438 612 q 287 806 329 770 q 252 825 265 825 q 224 711 224 825 q 302 141 224 527 q 307 100 307 119 q 285 24 307 60 q 221 -21 264 -12 q 201 -23 211 -23 z "},"o":{"ha":627,"x_min":14,"x_max":593,"o":"m 291 -73 q 138 2 201 -73 q 44 207 76 76 q 14 482 14 335 q 14 562 14 485 q 44 779 14 640 q 131 1013 74 918 q 271 1126 189 1108 q 294 1128 283 1128 q 431 1056 363 1128 q 546 834 500 983 q 593 490 593 686 q 542 144 593 294 q 309 -72 474 -52 l 291 -73 m 244 117 q 334 215 300 117 q 363 451 363 296 q 342 665 363 559 q 296 816 324 757 q 235 880 268 875 q 168 801 196 880 q 128 604 140 722 q 121 467 121 535 q 127 337 121 418 q 165 182 133 255 q 244 117 194 117 z "},"p":{"ha":812,"x_min":14,"x_max":778,"o":"m 225 -108 q 172 -92 200 -108 q 130 -37 143 -76 q 125 -8 125 -23 q 141 52 125 20 q 163 176 155 81 q 171 412 171 270 q 162 646 171 528 q 82 954 142 922 q 14 1052 14 986 q 34 1118 14 1083 q 103 1168 55 1154 q 134 1173 117 1173 q 214 1147 170 1173 q 304 1034 271 1112 q 505 1112 416 1112 q 575 1104 519 1112 q 693 1013 631 1096 q 772 815 755 930 q 778 740 778 777 q 749 571 778 663 q 627 408 721 478 q 401 343 542 343 l 376 344 q 316 -46 368 56 q 225 -108 281 -108 m 377 462 q 515 529 470 469 q 566 693 566 596 q 540 827 566 761 q 463 925 515 894 q 414 939 440 939 q 341 916 380 939 l 342 913 q 377 462 373 751 z "},"q":{"ha":656,"x_min":14,"x_max":622,"o":"m 570 -96 l 568 -96 q 522 -75 540 -96 q 413 -33 486 -33 q 277 -71 339 -33 q 247 -80 261 -80 q 197 -44 212 -80 q 192 -22 192 -33 q 197 1 192 -10 q 77 164 120 50 q 14 555 14 329 q 27 757 14 640 q 85 992 40 874 q 203 1166 130 1111 q 302 1202 257 1202 q 346 1196 314 1202 q 408 1147 378 1189 q 431 1075 431 1113 q 399 1006 430 1036 q 542 861 493 972 q 596 559 596 734 q 565 301 596 433 q 463 75 533 169 q 608 9 568 69 q 622 -41 622 -14 q 608 -78 622 -62 q 570 -96 593 -94 m 353 197 q 416 252 382 198 q 473 392 450 306 q 493 547 493 465 q 491 617 493 561 q 442 761 489 673 q 290 909 395 850 q 232 568 232 782 q 237 442 232 524 q 272 280 243 361 q 353 197 302 200 z "},"r":{"ha":773,"x_min":14,"x_max":739,"o":"m 136 -16 q 87 -3 120 -16 q 43 82 54 9 q 14 608 14 345 q 22 883 14 745 q 58 960 26 930 q 136 989 91 989 l 140 989 q 226 941 196 984 q 452 981 349 981 q 544 975 473 981 q 680 913 614 968 q 739 789 739 864 q 734 731 739 780 q 624 576 730 683 q 292 358 518 470 q 344 273 310 321 q 422 195 378 224 q 479 176 450 176 q 515 182 497 176 q 541 188 528 188 q 571 176 558 188 q 593 129 593 157 l 593 113 q 559 80 593 97 q 477 62 517 62 q 405 78 450 62 q 307 145 359 93 q 218 260 255 197 q 229 109 220 182 l 229 92 q 192 4 229 31 q 136 -16 165 -16 m 220 448 q 420 593 356 514 q 484 737 484 672 q 484 772 484 739 q 421 835 483 806 q 357 847 394 847 q 243 827 309 847 l 235 713 q 220 448 225 583 z "},"s":{"ha":625,"x_min":14,"x_max":591,"o":"m 367 40 q 271 51 333 40 q 144 110 208 62 q 77 233 80 158 q 93 272 77 256 q 133 288 110 288 q 172 272 156 288 q 189 233 189 256 q 206 197 189 210 q 256 180 227 180 q 321 220 307 180 q 322 235 322 227 q 294 304 322 263 q 214 404 265 346 q 94 553 151 471 q 18 726 37 634 q 14 774 14 749 q 54 918 14 844 q 200 1019 99 996 q 262 1025 229 1025 q 457 983 345 1025 q 488 954 479 975 q 493 932 493 943 q 489 911 493 922 q 437 876 475 876 q 416 880 427 876 q 391 884 404 884 q 330 866 367 884 q 270 800 294 849 q 260 750 260 775 q 272 693 260 728 q 324 611 285 659 q 412 515 363 564 q 514 400 467 459 q 582 278 562 342 q 591 223 591 251 q 574 144 591 184 q 367 40 525 40 z "},"t":{"ha":557,"x_min":14,"x_max":523,"o":"m 298 -26 q 247 -22 292 -26 q 150 60 201 -18 q 79 260 100 138 q 59 496 59 372 q 60 584 59 509 q 81 786 61 659 q 69 785 75 785 q 28 803 47 785 q 14 841 14 820 q 14 854 14 842 q 32 882 15 865 q 108 926 59 906 q 159 1069 130 1016 q 225 1122 182 1109 q 256 1126 241 1126 q 311 1113 283 1126 q 359 1060 345 1094 q 368 1015 368 1038 q 366 989 368 1002 l 393 989 l 406 989 q 445 972 430 988 q 459 933 459 956 q 442 893 459 909 q 401 878 425 878 l 391 878 q 332 872 368 878 q 304 688 317 796 q 287 416 287 538 q 297 258 287 336 q 339 144 307 180 q 375 127 354 127 q 433 151 400 127 q 466 161 448 161 q 484 159 470 161 q 511 139 497 157 q 523 105 523 123 q 521 88 523 101 q 500 60 519 75 q 298 -26 380 -26 z "},"u":{"ha":494,"x_min":14,"x_max":460,"o":"m 374 11 q 351 12 368 11 q 309 34 334 14 q 282 68 294 47 q 199 44 241 44 q 115 83 153 44 q 54 206 77 122 q 22 385 31 290 q 14 564 14 481 q 15 690 14 646 l 16 697 q 51 775 18 745 q 130 806 83 806 q 208 771 178 804 q 239 693 239 739 l 238 667 q 235 498 235 568 q 277 243 235 262 l 280 243 q 323 389 308 243 q 338 644 331 477 q 340 704 339 685 q 358 742 342 728 q 395 756 374 756 q 438 737 421 756 q 452 701 452 722 l 452 697 q 448 622 450 663 q 437 457 445 545 q 411 285 430 368 q 353 139 391 201 q 378 124 362 124 q 390 126 383 124 q 405 128 397 128 q 436 119 420 128 q 458 86 452 109 q 460 71 460 79 q 451 40 460 56 q 418 18 441 24 q 374 11 395 11 z "},"v":{"ha":715,"x_min":14,"x_max":681,"o":"m 377 66 q 275 136 319 70 q 195 301 230 202 q 130 501 159 400 q 82 649 105 583 q 37 748 60 714 q 14 813 14 781 q 20 850 14 824 q 62 903 26 877 q 132 925 94 925 q 160 924 136 925 q 217 879 183 922 q 288 686 257 819 q 338 419 318 554 q 366 218 358 285 q 370 184 370 184 q 393 284 378 189 q 423 511 408 380 q 448 750 438 642 q 456 880 456 846 l 456 893 q 487 973 456 945 q 570 1005 522 1005 q 642 981 609 1005 q 681 881 681 951 q 670 747 681 835 q 634 541 659 659 q 571 315 608 423 q 484 137 533 206 q 377 66 435 67 z "},"w":{"ha":841,"x_min":14,"x_max":807,"o":"m 157 26 q 67 119 99 31 q 14 583 14 267 q 15 675 14 597 q 24 865 16 753 q 41 1022 33 977 q 90 1097 53 1076 q 147 1112 117 1112 q 186 1107 159 1112 q 241 1069 214 1102 q 263 1004 263 1043 q 261 981 263 993 q 195 531 239 861 q 161 178 161 265 q 167 138 161 142 q 258 393 195 139 q 318 702 318 633 l 318 709 q 345 783 318 753 q 429 821 379 821 q 531 718 511 821 q 539 659 534 703 q 564 477 549 585 q 637 200 604 206 q 667 270 663 205 q 669 317 669 292 q 637 627 669 428 q 591 885 605 833 q 589 910 589 899 q 610 978 589 947 q 667 1017 630 1008 q 688 1019 677 1019 q 779 930 762 1019 q 797 794 788 885 q 807 568 807 680 q 756 191 807 321 q 667 87 725 112 q 663 85 665 86 q 635 81 644 81 q 572 106 603 81 q 410 371 486 186 q 332 202 374 281 q 245 75 290 123 q 157 26 200 26 z "},"x":{"ha":787,"x_min":14,"x_max":753,"o":"m 258 87 q 214 109 232 87 q 203 144 203 125 l 203 151 q 279 490 220 300 q 83 689 146 633 q 14 812 14 755 q 17 849 14 817 q 75 903 20 882 q 115 911 94 911 q 200 884 155 911 q 380 724 307 812 q 595 946 471 887 q 644 956 621 956 q 709 931 674 956 q 752 850 745 905 l 753 837 q 708 754 753 791 q 499 535 602 674 q 581 287 552 418 q 583 269 583 277 q 570 227 583 245 q 531 208 554 208 q 511 210 527 208 q 471 260 495 213 q 393 365 455 292 q 314 137 330 244 q 294 100 311 113 q 258 87 277 87 z "},"y":{"ha":721,"x_min":14,"x_max":687,"o":"m 402 -47 q 351 -11 366 -47 q 347 10 347 0 q 353 37 347 21 q 381 62 360 52 q 415 142 401 71 q 436 319 429 213 q 446 541 444 425 q 353 331 404 399 q 248 262 303 262 q 115 354 174 262 q 28 597 56 446 q 14 769 14 680 q 24 926 14 845 q 68 1000 32 973 q 135 1022 97 1022 q 224 978 191 1022 q 247 911 247 949 l 246 895 q 235 732 235 810 q 282 498 235 526 l 286 498 q 330 556 308 498 q 373 703 353 614 q 406 873 393 792 q 420 989 418 954 q 463 1069 424 1040 q 536 1094 496 1094 q 571 1091 543 1094 q 632 1036 599 1088 q 687 713 687 939 q 681 562 687 661 q 644 327 675 463 q 557 92 612 191 q 423 -43 503 -8 q 402 -47 412 -47 z "},"z":{"ha":713,"x_min":14,"x_max":679,"o":"m 551 52 q 500 59 529 52 q 391 80 457 70 q 122 142 227 104 q 14 252 14 183 q 271 671 14 337 l 349 774 q 204 810 271 798 l 157 819 q 70 873 70 838 q 91 906 70 887 q 169 939 113 924 q 233 960 193 946 q 357 998 288 979 q 517 1024 450 1024 q 606 1005 568 1024 q 679 904 679 966 q 552 664 679 838 q 425 495 491 580 q 292 318 352 401 q 439 234 369 286 q 556 161 494 195 q 612 94 612 130 q 589 60 612 73 q 551 52 574 52 z "},"{":{"ha":382,"x_min":14,"x_max":348,"o":"m 230 110 q 22 199 50 110 q 14 253 14 224 q 58 444 14 311 q 105 625 91 536 q 106 644 106 635 q 96 679 106 667 q 67 697 85 691 q 39 713 50 703 q 28 748 28 724 q 49 797 28 783 q 86 814 66 809 q 122 831 107 820 q 134 863 134 840 l 134 869 q 87 1033 128 930 q 44 1175 54 1109 q 43 1195 43 1185 q 91 1285 43 1247 q 296 1326 139 1322 q 334 1307 319 1323 q 348 1268 348 1291 q 329 1227 348 1245 q 292 1214 313 1214 l 277 1214 q 222 1195 236 1214 q 208 1147 208 1177 q 224 1039 208 1109 q 245 878 245 939 l 245 852 q 144 742 241 759 q 178 718 163 726 q 214 687 203 704 q 220 653 220 675 q 197 509 220 619 q 170 332 170 393 q 187 257 170 287 q 262 223 207 223 l 285 224 q 323 211 306 224 q 342 168 342 195 q 329 132 342 148 q 292 112 315 115 q 230 110 258 110 z "},"}":{"ha":381,"x_min":14,"x_max":347,"o":"m 131 110 q 69 112 102 110 q 33 132 46 115 q 19 170 19 149 q 39 211 19 195 q 77 224 56 224 l 99 223 q 174 257 155 223 q 191 334 191 288 q 165 509 191 390 q 141 654 141 615 q 150 690 141 675 q 182 718 158 704 q 217 742 197 726 q 116 852 120 759 l 115 875 q 138 1039 115 936 q 154 1145 154 1112 q 139 1195 154 1177 q 83 1214 125 1214 l 68 1214 q 32 1228 47 1214 q 14 1270 14 1244 q 28 1307 14 1291 q 66 1326 42 1323 q 275 1281 222 1322 q 318 1196 318 1247 q 274 1033 318 1137 q 227 865 227 914 q 240 830 227 841 q 274 814 254 820 q 312 797 295 809 q 333 754 330 785 l 333 751 q 322 714 333 725 q 294 697 311 703 q 264 677 277 691 q 255 642 255 666 l 256 625 q 302 445 271 536 q 347 253 347 315 q 336 188 347 224 q 261 127 324 151 q 131 110 214 110 z "},"":{"ha":1355,"x_min":0,"x_max":1321,"o":"m 1074 -43 q 995 -11 1028 -43 q 962 68 962 22 q 948 490 962 300 q 648 435 808 475 q 436 392 538 410 q 423 68 423 233 q 390 -11 423 22 q 311 -43 357 -43 q 232 -11 264 -43 q 199 68 199 22 q 211 381 199 233 q 100 418 147 389 q 26 500 52 446 q 0 641 0 555 q 17 681 0 665 q 56 697 33 697 q 96 681 79 697 q 113 641 113 665 q 222 494 113 515 q 361 1124 265 873 q 531 1419 434 1314 q 736 1524 629 1523 l 738 1523 q 945 1401 852 1523 q 1166 581 1112 1182 q 1321 324 1310 526 q 1306 284 1321 301 q 1266 267 1291 267 q 1227 282 1243 267 q 1209 320 1211 296 q 1177 427 1205 388 q 1187 68 1187 260 q 1154 -11 1187 22 q 1074 -43 1121 -43 m 448 507 q 623 545 533 524 q 939 602 827 591 q 875 1002 916 838 q 736 1306 820 1306 q 571 1045 651 1306 q 448 507 489 831 m 730 1598 q 627 1641 694 1598 q 569 1683 591 1664 q 547 1721 547 1702 q 552 1746 547 1730 q 584 1780 557 1761 q 634 1799 610 1799 q 663 1779 655 1799 q 673 1740 669 1751 q 725 1655 685 1710 q 753 1609 753 1619 q 730 1598 753 1598 z "},"":{"ha":1355,"x_min":0,"x_max":1321,"o":"m 1074 -43 q 995 -11 1028 -43 q 962 68 962 22 q 948 490 962 300 q 648 435 808 475 q 436 392 538 410 q 423 68 423 233 q 390 -11 423 22 q 311 -43 357 -43 q 232 -11 264 -43 q 199 68 199 22 q 211 381 199 233 q 100 418 147 389 q 26 500 52 446 q 0 641 0 555 q 17 681 0 665 q 56 697 33 697 q 96 681 79 697 q 113 641 113 665 q 222 494 113 515 q 361 1124 265 873 q 531 1419 434 1314 q 736 1524 629 1523 l 738 1523 q 945 1401 852 1523 q 1166 581 1112 1182 q 1321 324 1310 526 q 1306 284 1321 301 q 1266 267 1291 267 q 1227 282 1243 267 q 1209 320 1211 296 q 1177 427 1205 388 q 1187 68 1187 260 q 1154 -11 1187 22 q 1074 -43 1121 -43 m 448 507 q 623 545 533 524 q 939 602 827 591 q 875 1002 916 838 q 736 1306 820 1306 q 571 1045 651 1306 q 448 507 489 831 m 650 1561 q 627 1573 627 1561 q 655 1619 627 1582 q 707 1703 695 1674 q 717 1742 711 1714 q 746 1763 725 1763 q 797 1744 770 1763 q 828 1709 823 1725 q 833 1685 833 1693 q 811 1647 833 1666 q 753 1605 789 1628 q 650 1561 686 1561 z "},"":{"ha":1355,"x_min":0,"x_max":1321,"o":"m 1074 -43 q 995 -11 1028 -43 q 962 68 962 22 q 948 490 962 300 q 648 435 808 475 q 436 392 538 410 q 423 68 423 233 q 390 -11 423 22 q 311 -43 357 -43 q 232 -11 264 -43 q 199 68 199 22 q 211 381 199 233 q 100 418 147 389 q 26 500 52 446 q 0 641 0 555 q 17 681 0 665 q 56 697 33 697 q 96 681 79 697 q 113 641 113 665 q 222 494 113 515 q 361 1124 265 873 q 531 1419 434 1314 q 736 1524 629 1523 l 738 1523 q 945 1401 852 1523 q 1166 581 1112 1182 q 1321 324 1310 526 q 1306 284 1321 301 q 1266 267 1291 267 q 1227 282 1243 267 q 1209 320 1211 296 q 1177 427 1205 388 q 1187 68 1187 260 q 1154 -11 1187 22 q 1074 -43 1121 -43 m 448 507 q 623 545 533 524 q 939 602 827 591 q 875 1002 916 838 q 736 1306 820 1306 q 571 1045 651 1306 q 448 507 489 831 m 679 1535 q 632 1556 653 1535 q 620 1579 620 1567 q 622 1590 620 1584 l 760 1802 q 781 1817 768 1817 q 793 1813 787 1817 q 850 1701 803 1804 l 897 1599 q 899 1588 899 1594 q 885 1561 899 1576 q 850 1541 871 1547 q 840 1540 844 1540 q 819 1553 826 1540 l 781 1725 l 702 1549 q 679 1535 694 1535 z "},"":{"ha":1355,"x_min":0,"x_max":1321,"o":"m 1074 -43 q 995 -11 1028 -43 q 962 68 962 22 q 948 490 962 300 q 648 435 808 475 q 436 392 538 410 q 423 68 423 233 q 390 -11 423 22 q 311 -43 357 -43 q 232 -11 264 -43 q 199 68 199 22 q 211 381 199 233 q 100 418 147 389 q 26 500 52 446 q 0 641 0 555 q 17 681 0 665 q 56 697 33 697 q 96 681 79 697 q 113 641 113 665 q 222 494 113 515 q 361 1124 265 873 q 531 1419 434 1314 q 736 1524 629 1523 l 738 1523 q 945 1401 852 1523 q 1166 581 1112 1182 q 1321 324 1310 526 q 1306 284 1321 301 q 1266 267 1291 267 q 1227 282 1243 267 q 1209 320 1211 296 q 1177 427 1205 388 q 1187 68 1187 260 q 1154 -11 1187 22 q 1074 -43 1121 -43 m 448 507 q 623 545 533 524 q 939 602 827 591 q 875 1002 916 838 q 736 1306 820 1306 q 571 1045 651 1306 q 448 507 489 831 m 572 1552 q 548 1556 563 1552 q 524 1585 533 1560 q 515 1652 515 1624 q 568 1765 515 1733 q 612 1776 587 1776 q 740 1697 672 1776 q 799 1657 774 1657 q 830 1691 823 1657 q 832 1711 832 1700 q 824 1760 832 1731 q 821 1776 821 1771 q 848 1799 821 1799 q 902 1761 886 1799 q 920 1665 920 1704 q 861 1566 920 1583 q 842 1563 852 1563 q 787 1576 821 1563 q 703 1646 753 1588 q 648 1681 672 1681 q 610 1650 623 1681 q 604 1617 604 1636 q 606 1593 604 1606 q 608 1582 608 1588 q 583 1554 608 1561 q 572 1552 578 1552 z "},"":{"ha":1355,"x_min":0,"x_max":1321,"o":"m 1074 -43 q 995 -11 1028 -43 q 962 68 962 22 q 948 490 962 300 q 648 435 808 475 q 436 392 538 410 q 423 68 423 233 q 390 -11 423 22 q 311 -43 357 -43 q 232 -11 264 -43 q 199 68 199 22 q 211 381 199 233 q 100 418 147 389 q 26 500 52 446 q 0 641 0 555 q 17 681 0 665 q 56 697 33 697 q 96 681 79 697 q 113 641 113 665 q 222 494 113 515 q 361 1124 265 873 q 531 1419 434 1314 q 736 1524 629 1523 l 738 1523 q 945 1401 852 1523 q 1166 581 1112 1182 q 1321 324 1310 526 q 1306 284 1321 301 q 1266 267 1291 267 q 1227 282 1243 267 q 1209 320 1211 296 q 1177 427 1205 388 q 1187 68 1187 260 q 1154 -11 1187 22 q 1074 -43 1121 -43 m 448 507 q 623 545 533 524 q 939 602 827 591 q 875 1002 916 838 q 736 1306 820 1306 q 571 1045 651 1306 q 448 507 489 831 m 639 1553 q 593 1575 611 1553 q 577 1620 577 1594 q 593 1665 577 1646 q 639 1687 611 1687 q 684 1665 666 1687 q 700 1620 700 1646 q 684 1575 700 1594 q 639 1553 666 1553 m 782 1553 q 736 1575 755 1553 q 721 1620 721 1594 q 736 1665 721 1646 q 782 1687 755 1687 q 828 1665 810 1687 q 844 1620 844 1646 q 828 1575 844 1594 q 782 1553 810 1553 z "},"":{"ha":1355,"x_min":0,"x_max":1321,"o":"m 1074 -43 q 995 -11 1028 -43 q 962 68 962 22 q 948 490 962 300 q 648 435 808 475 q 436 392 538 410 q 423 68 423 233 q 390 -11 423 22 q 311 -43 357 -43 q 232 -11 264 -43 q 199 68 199 22 q 211 381 199 233 q 100 418 147 389 q 26 500 52 446 q 0 641 0 555 q 17 681 0 665 q 56 697 33 697 q 96 681 79 697 q 113 641 113 665 q 222 494 113 515 q 361 1124 265 873 q 531 1419 434 1314 q 736 1524 629 1523 l 738 1523 q 945 1401 852 1523 q 1166 581 1112 1182 q 1321 324 1310 526 q 1306 284 1321 301 q 1266 267 1291 267 q 1227 282 1243 267 q 1209 320 1211 296 q 1177 427 1205 388 q 1187 68 1187 260 q 1154 -11 1187 22 q 1074 -43 1121 -43 m 448 507 q 623 545 533 524 q 939 602 827 591 q 875 1002 916 838 q 736 1306 820 1306 q 571 1045 651 1306 q 448 507 489 831 m 702 1558 l 697 1558 q 578 1600 617 1558 q 540 1703 540 1643 q 540 1735 540 1704 q 577 1815 541 1766 q 682 1872 613 1864 l 692 1872 q 806 1828 755 1872 q 859 1705 857 1783 q 848 1646 859 1678 q 802 1587 836 1613 q 702 1558 768 1562 m 685 1605 q 746 1642 729 1610 q 760 1697 760 1667 q 756 1729 760 1705 q 732 1783 753 1753 q 678 1813 711 1813 q 633 1779 650 1811 q 612 1693 612 1741 q 627 1634 612 1659 q 680 1605 642 1605 l 685 1605 z "},"":{"ha":2018,"x_min":0,"x_max":1984,"o":"m 448 507 q 623 545 533 524 q 939 602 827 591 q 875 1002 916 838 q 736 1306 820 1306 q 571 1045 651 1306 q 448 507 489 831 m 1468 633 q 1729 696 1637 638 q 1872 970 1872 785 q 1864 1062 1872 998 q 1816 1210 1855 1125 q 1729 1343 1777 1294 q 1653 1385 1688 1385 q 1642 1384 1647 1385 q 1549 1252 1588 1366 q 1489 971 1510 1137 q 1468 633 1468 806 m 1286 271 q 1266 267 1277 267 q 1227 282 1243 267 q 1209 320 1211 296 q 1177 427 1205 388 q 1187 68 1187 260 q 1154 -11 1187 22 q 1074 -43 1121 -43 q 995 -11 1028 -43 q 962 68 962 22 q 948 490 962 300 q 648 435 808 475 q 436 392 538 410 q 423 68 423 233 q 390 -11 423 22 q 311 -43 357 -43 q 232 -11 264 -43 q 199 68 199 22 q 211 381 199 233 q 100 418 147 389 q 26 500 52 446 q 0 641 0 555 q 17 681 0 665 q 56 697 33 697 q 96 681 79 697 q 113 641 113 665 q 222 494 113 515 q 361 1124 265 873 q 531 1419 434 1314 q 736 1524 629 1523 l 738 1523 q 945 1401 852 1523 q 1166 581 1112 1182 q 1243 531 1211 563 q 1237 700 1237 612 q 1254 977 1237 829 q 1317 1265 1272 1126 q 1434 1485 1363 1405 q 1584 1560 1498 1560 l 1598 1559 q 1768 1470 1687 1548 q 1906 1277 1849 1393 q 1979 1031 1963 1160 q 1984 961 1984 996 q 1947 772 1984 871 q 1794 600 1911 673 q 1470 522 1678 527 q 1503 264 1476 371 q 1615 119 1538 119 q 1677 136 1638 119 q 1787 224 1716 153 q 1836 252 1804 252 q 1864 244 1850 252 q 1891 196 1891 226 q 1883 168 1891 182 q 1529 -22 1670 -22 q 1374 68 1438 -22 q 1286 271 1318 146 z "},"":{"ha":1624,"x_min":0,"x_max":1590,"o":"m 1074 633 q 1335 696 1244 638 q 1479 970 1479 785 q 1471 1062 1479 998 q 1423 1210 1462 1125 q 1335 1343 1383 1294 q 1260 1385 1295 1385 q 1249 1384 1254 1385 q 1155 1252 1194 1366 q 1095 971 1116 1137 q 1074 633 1074 806 m 480 76 q 495 79 488 76 q 563 178 535 98 q 633 553 612 319 q 642 681 642 642 q 644 807 644 732 q 586 1186 637 1078 q 542 1246 559 1246 l 541 1246 q 435 1178 499 1242 q 286 951 347 1087 q 223 696 224 816 q 258 583 224 623 q 323 736 273 690 q 394 764 356 764 q 424 762 399 764 q 499 711 448 760 q 514 676 514 696 l 514 665 q 496 640 513 654 q 458 626 479 626 q 418 642 434 626 q 403 659 406 654 q 400 662 401 662 q 367 548 376 637 q 366 518 366 536 q 370 421 366 486 q 388 267 373 355 q 429 122 402 179 q 480 76 450 76 m 859 964 q 861 977 860 971 q 924 1265 878 1126 q 1040 1485 970 1405 q 1190 1560 1105 1560 l 1204 1559 q 1375 1470 1293 1548 q 1513 1277 1456 1393 q 1586 1031 1570 1160 q 1590 961 1590 996 q 1554 772 1590 871 q 1401 600 1518 673 q 1076 522 1284 527 q 1109 264 1083 371 q 1221 119 1145 119 q 1284 136 1244 119 q 1394 224 1323 153 q 1442 252 1411 252 q 1470 244 1457 252 q 1498 196 1498 226 q 1490 168 1498 182 q 1135 -22 1277 -22 q 981 68 1044 -22 q 885 300 918 155 q 852 500 863 393 q 772 107 829 273 q 563 -117 693 -117 l 552 -117 q 395 -20 458 -106 q 299 185 333 66 q 256 415 265 304 q 193 397 227 397 q 169 398 190 397 q 118 422 149 399 q 0 694 1 518 q 77 1026 1 857 q 269 1314 154 1196 q 537 1449 399 1444 q 546 1448 543 1449 q 793 1261 710 1447 q 859 964 843 1157 z "},"":{"ha":753,"x_min":0,"x_max":720,"o":"m 297 -394 q 191 -338 223 -394 q 176 -290 176 -313 q 183 -256 176 -279 q 242 -227 190 -234 q 332 -224 300 -227 q 392 -201 392 -218 q 387 -190 392 -196 q 351 -174 380 -182 q 267 -137 313 -163 q 193 22 193 -94 l 193 28 q 69 243 115 96 q 0 762 0 460 q 12 1004 0 859 q 72 1304 24 1148 q 199 1544 120 1460 q 336 1606 259 1606 q 567 1466 454 1606 q 709 1209 650 1362 l 713 1201 q 716 1193 715 1195 q 720 1173 720 1182 q 684 1120 720 1135 q 663 1117 673 1117 q 611 1153 626 1117 l 605 1169 q 419 1427 506 1427 l 417 1427 q 319 1332 361 1420 q 251 1105 277 1243 q 214 708 214 915 q 227 496 214 610 q 278 292 239 381 q 386 197 318 203 l 392 197 q 613 427 484 197 q 662 456 630 456 q 689 449 675 456 q 718 400 718 432 q 711 373 718 387 q 527 114 612 198 q 359 1 441 30 l 356 0 q 377 -7 361 -5 q 401 -12 387 -8 q 520 -84 482 -33 q 557 -184 557 -135 q 506 -299 557 -248 q 384 -376 454 -351 q 297 -394 337 -394 z "},"":{"ha":781,"x_min":0,"x_max":747,"o":"m 292 -22 q 137 68 201 -22 q 41 300 75 155 q 0 700 0 477 q 17 977 0 829 q 80 1265 35 1126 q 197 1485 126 1405 q 347 1560 261 1560 l 361 1559 q 531 1470 450 1548 q 669 1277 612 1393 q 742 1031 726 1160 q 747 961 747 996 q 710 772 747 871 q 557 600 674 673 q 233 522 441 527 q 266 264 239 371 q 378 119 301 119 q 440 136 401 119 q 550 224 479 153 q 599 252 567 252 q 627 244 613 252 q 654 196 654 226 q 646 168 654 182 q 292 -22 433 -22 m 231 633 q 492 696 400 638 q 635 970 635 785 q 627 1062 635 998 q 579 1210 618 1125 q 492 1343 540 1294 q 416 1385 451 1385 q 405 1384 410 1385 q 312 1252 351 1366 q 252 971 273 1137 q 231 633 231 806 m 337 1607 q 233 1651 301 1607 q 175 1693 197 1674 q 153 1731 153 1712 q 158 1755 153 1740 q 190 1790 163 1771 q 241 1809 217 1809 q 270 1788 262 1809 q 280 1749 276 1761 q 332 1665 292 1720 q 360 1619 360 1628 q 337 1607 360 1607 z "},"":{"ha":781,"x_min":0,"x_max":747,"o":"m 292 -22 q 137 68 201 -22 q 41 300 75 155 q 0 700 0 477 q 17 977 0 829 q 80 1265 35 1126 q 197 1485 126 1405 q 347 1560 261 1560 l 361 1559 q 531 1470 450 1548 q 669 1277 612 1393 q 742 1031 726 1160 q 747 961 747 996 q 710 772 747 871 q 557 600 674 673 q 233 522 441 527 q 266 264 239 371 q 378 119 301 119 q 440 136 401 119 q 550 224 479 153 q 599 252 567 252 q 627 244 613 252 q 654 196 654 226 q 646 168 654 182 q 292 -22 433 -22 m 231 633 q 492 696 400 638 q 635 970 635 785 q 627 1062 635 998 q 579 1210 618 1125 q 492 1343 540 1294 q 416 1385 451 1385 q 405 1384 410 1385 q 312 1252 351 1366 q 252 971 273 1137 q 231 633 231 806 m 282 1598 q 259 1609 259 1598 q 288 1655 259 1619 q 339 1740 328 1710 q 349 1779 343 1751 q 378 1799 357 1799 q 429 1780 402 1799 q 461 1746 456 1761 q 466 1721 466 1730 q 444 1683 466 1702 q 386 1641 422 1664 q 282 1598 318 1598 z "},"":{"ha":781,"x_min":0,"x_max":747,"o":"m 292 -22 q 137 68 201 -22 q 41 300 75 155 q 0 700 0 477 q 17 977 0 829 q 80 1265 35 1126 q 197 1485 126 1405 q 347 1560 261 1560 l 361 1559 q 531 1470 450 1548 q 669 1277 612 1393 q 742 1031 726 1160 q 747 961 747 996 q 710 772 747 871 q 557 600 674 673 q 233 522 441 527 q 266 264 239 371 q 378 119 301 119 q 440 136 401 119 q 550 224 479 153 q 599 252 567 252 q 627 244 613 252 q 654 196 654 226 q 646 168 654 182 q 292 -22 433 -22 m 231 633 q 492 696 400 638 q 635 970 635 785 q 627 1062 635 998 q 579 1210 618 1125 q 492 1343 540 1294 q 416 1385 451 1385 q 405 1384 410 1385 q 312 1252 351 1366 q 252 971 273 1137 q 231 633 231 806 m 248 1584 q 201 1604 222 1584 q 189 1628 189 1615 q 191 1638 189 1632 l 329 1850 q 350 1866 336 1866 q 362 1862 356 1866 q 419 1749 372 1852 l 466 1647 q 468 1636 468 1642 q 454 1610 468 1624 q 418 1590 440 1595 q 409 1588 413 1588 q 387 1601 395 1588 l 350 1773 l 271 1597 q 248 1584 263 1584 z "},"":{"ha":781,"x_min":0,"x_max":747,"o":"m 292 -22 q 137 68 201 -22 q 41 300 75 155 q 0 700 0 477 q 17 977 0 829 q 80 1265 35 1126 q 197 1485 126 1405 q 347 1560 261 1560 l 361 1559 q 531 1470 450 1548 q 669 1277 612 1393 q 742 1031 726 1160 q 747 961 747 996 q 710 772 747 871 q 557 600 674 673 q 233 522 441 527 q 266 264 239 371 q 378 119 301 119 q 440 136 401 119 q 550 224 479 153 q 599 252 567 252 q 627 244 613 252 q 654 196 654 226 q 646 168 654 182 q 292 -22 433 -22 m 231 633 q 492 696 400 638 q 635 970 635 785 q 627 1062 635 998 q 579 1210 618 1125 q 492 1343 540 1294 q 416 1385 451 1385 q 405 1384 410 1385 q 312 1252 351 1366 q 252 971 273 1137 q 231 633 231 806 m 236 1581 q 190 1604 208 1581 q 174 1649 174 1623 q 190 1693 174 1674 q 236 1716 208 1716 q 281 1693 263 1716 q 297 1649 297 1674 q 281 1604 297 1623 q 236 1581 263 1581 m 379 1581 q 334 1604 352 1581 q 318 1649 318 1623 q 334 1693 318 1674 q 379 1716 352 1716 q 425 1693 407 1716 q 441 1649 441 1674 q 425 1604 441 1623 q 379 1581 407 1581 z "},"":{"ha":488,"x_min":0,"x_max":454,"o":"m 398 -80 q 347 -45 361 -80 q 212 24 316 24 q 85 -8 139 24 q 56 -16 71 -16 q 8 11 26 -16 q 0 40 0 25 q 27 87 0 71 q 185 136 100 132 q 191 286 191 214 q 143 738 191 470 q 103 1101 103 967 q 114 1258 103 1178 q 96 1255 104 1255 q 66 1270 78 1255 q 50 1314 50 1289 q 51 1334 50 1317 q 85 1365 53 1351 q 208 1422 146 1391 q 332 1478 269 1453 q 346 1481 340 1481 q 382 1461 364 1481 q 410 1403 400 1440 q 417 1354 417 1377 q 414 1320 417 1343 q 345 1276 408 1286 q 326 1093 326 1181 q 349 839 326 994 q 374 555 374 665 q 361 377 374 480 q 297 124 349 273 q 389 77 347 109 q 450 -4 431 45 q 454 -25 454 -14 q 419 -76 454 -62 q 398 -80 408 -80 m 262 1521 q 159 1565 227 1521 q 101 1607 123 1588 q 79 1645 79 1626 q 84 1669 79 1653 q 116 1704 89 1685 q 166 1723 142 1723 q 195 1702 187 1723 q 205 1663 201 1674 q 257 1579 217 1634 q 286 1533 286 1542 q 262 1521 286 1521 z "},"":{"ha":488,"x_min":0,"x_max":454,"o":"m 398 -80 q 347 -45 361 -80 q 212 24 316 24 q 85 -8 139 24 q 56 -16 71 -16 q 8 11 26 -16 q 0 40 0 25 q 27 87 0 71 q 185 136 100 132 q 191 286 191 214 q 143 738 191 470 q 103 1101 103 967 q 114 1258 103 1178 q 96 1255 104 1255 q 66 1270 78 1255 q 50 1314 50 1289 q 51 1334 50 1317 q 85 1365 53 1351 q 208 1422 146 1391 q 332 1478 269 1453 q 346 1481 340 1481 q 382 1461 364 1481 q 410 1403 400 1440 q 417 1354 417 1377 q 414 1320 417 1343 q 345 1276 408 1286 q 326 1093 326 1181 q 349 839 326 994 q 374 555 374 665 q 361 377 374 480 q 297 124 349 273 q 389 77 347 109 q 450 -4 431 45 q 454 -25 454 -14 q 419 -76 454 -62 q 398 -80 408 -80 m 140 1468 q 117 1479 117 1468 q 146 1525 117 1489 q 197 1609 186 1580 q 208 1649 201 1621 q 237 1669 216 1669 q 287 1650 260 1669 q 319 1615 314 1631 q 324 1591 324 1600 q 302 1553 324 1572 q 244 1511 280 1534 q 140 1468 176 1468 z "},"":{"ha":488,"x_min":0,"x_max":454,"o":"m 398 -80 q 347 -45 361 -80 q 212 24 316 24 q 85 -8 139 24 q 56 -16 71 -16 q 8 11 26 -16 q 0 40 0 25 q 27 87 0 71 q 185 136 100 132 q 191 286 191 214 q 143 738 191 470 q 103 1101 103 967 q 114 1258 103 1178 q 96 1255 104 1255 q 66 1270 78 1255 q 50 1314 50 1289 q 51 1334 50 1317 q 85 1365 53 1351 q 208 1422 146 1391 q 332 1478 269 1453 q 346 1481 340 1481 q 382 1461 364 1481 q 410 1403 400 1440 q 417 1354 417 1377 q 414 1320 417 1343 q 345 1276 408 1286 q 326 1093 326 1181 q 349 839 326 994 q 374 555 374 665 q 361 377 374 480 q 297 124 349 273 q 389 77 347 109 q 450 -4 431 45 q 454 -25 454 -14 q 419 -76 454 -62 q 398 -80 408 -80 m 127 1489 q 80 1510 101 1489 q 68 1533 68 1520 q 70 1544 68 1538 l 208 1756 q 229 1771 216 1771 q 241 1767 235 1771 q 298 1655 251 1758 l 345 1553 q 347 1542 347 1548 q 333 1515 347 1530 q 298 1495 319 1501 q 288 1494 292 1494 q 267 1507 274 1494 l 229 1679 l 150 1503 q 127 1489 142 1489 z "},"":{"ha":488,"x_min":0,"x_max":454,"o":"m 398 -80 q 347 -45 361 -80 q 212 24 316 24 q 85 -8 139 24 q 56 -16 71 -16 q 8 11 26 -16 q 0 40 0 25 q 27 87 0 71 q 185 136 100 132 q 191 286 191 214 q 143 738 191 470 q 103 1101 103 967 q 114 1258 103 1178 q 96 1255 104 1255 q 66 1270 78 1255 q 50 1314 50 1289 q 51 1334 50 1317 q 85 1365 53 1351 q 208 1422 146 1391 q 332 1478 269 1453 q 346 1481 340 1481 q 382 1461 364 1481 q 410 1403 400 1440 q 417 1354 417 1377 q 414 1320 417 1343 q 345 1276 408 1286 q 326 1093 326 1181 q 349 839 326 994 q 374 555 374 665 q 361 377 374 480 q 297 124 349 273 q 389 77 347 109 q 450 -4 431 45 q 454 -25 454 -14 q 419 -76 454 -62 q 398 -80 408 -80 m 125 1492 q 79 1514 97 1492 q 63 1559 63 1533 q 79 1604 63 1585 q 125 1626 97 1626 q 170 1604 152 1626 q 186 1559 186 1585 q 170 1514 186 1533 q 125 1492 152 1492 m 268 1492 q 222 1514 241 1492 q 207 1559 207 1533 q 222 1604 207 1585 q 268 1626 241 1626 q 314 1604 296 1626 q 330 1559 330 1585 q 314 1514 330 1533 q 268 1492 296 1492 z "},"":{"ha":1066,"x_min":0,"x_max":1032,"o":"m 275 16 q 133 53 207 16 q 20 212 60 89 q 0 367 0 277 q 7 484 0 420 q 26 517 11 505 q 58 528 41 528 q 98 508 82 528 q 108 477 108 494 l 108 471 q 99 340 99 397 q 112 227 99 271 q 202 130 139 138 q 221 128 212 128 q 353 176 277 128 q 514 313 429 223 q 667 513 598 404 q 774 730 736 622 q 821 1003 821 878 q 817 1098 821 1020 q 762 1275 813 1177 q 634 1418 710 1373 q 527 1449 582 1449 q 446 1434 500 1449 q 320 1320 391 1420 q 366 1017 356 1180 l 369 968 l 456 977 q 476 943 469 975 q 484 850 484 903 q 463 756 484 760 l 372 766 q 353 407 369 589 q 317 337 348 363 q 252 313 289 313 q 174 350 204 313 q 151 416 151 378 l 151 425 q 170 790 168 612 l 76 801 q 57 822 64 802 q 51 870 51 843 q 57 918 51 897 q 76 940 63 939 l 168 949 q 165 1004 167 977 q 62 1434 146 1280 q 49 1484 49 1459 q 57 1524 49 1497 q 101 1573 64 1551 q 150 1586 125 1586 q 190 1579 163 1586 q 238 1533 216 1571 q 283 1434 264 1487 q 600 1584 422 1584 q 760 1549 669 1584 q 929 1403 850 1515 q 1028 1114 1009 1291 q 1032 1034 1032 1075 q 979 699 1032 884 q 821 370 922 511 q 598 140 720 228 q 359 26 477 52 q 275 16 315 16 z "},"":{"ha":925,"x_min":0,"x_max":891,"o":"m 155 144 q 91 163 123 144 q 48 237 58 182 q 12 627 27 374 q 0 1026 0 827 q 2 1230 0 1078 q 41 1517 4 1381 q 136 1651 79 1638 q 155 1653 145 1653 q 249 1595 201 1653 q 328 1431 298 1537 q 399 1128 355 1329 q 519 627 477 788 q 610 390 581 390 l 613 391 q 653 555 642 415 q 663 828 663 676 q 662 958 663 853 q 647 1216 661 1063 q 611 1417 633 1369 q 597 1472 597 1447 q 660 1567 597 1535 q 715 1580 687 1580 q 755 1574 728 1580 q 810 1520 783 1568 q 863 1324 842 1457 q 891 916 891 1143 q 880 658 891 800 q 830 386 868 516 q 727 199 793 256 q 655 170 689 170 q 538 257 593 170 q 465 444 509 302 q 280 1114 404 641 q 205 1394 233 1299 l 205 1392 q 232 859 205 1344 q 269 271 260 338 q 271 251 271 260 q 244 180 271 210 q 155 144 212 144 m 568 1607 q 523 1616 554 1607 q 455 1685 492 1625 q 423 1711 438 1711 q 413 1710 422 1711 q 393 1689 404 1708 q 380 1647 382 1669 q 361 1633 378 1633 q 348 1634 359 1633 q 315 1648 336 1635 q 293 1678 294 1662 q 332 1767 296 1740 q 385 1784 356 1784 q 431 1775 399 1784 q 498 1710 463 1766 q 536 1673 521 1673 q 544 1676 541 1673 q 559 1723 559 1687 l 558 1735 q 587 1754 559 1754 q 624 1746 604 1754 q 646 1721 644 1737 l 647 1706 q 617 1626 647 1651 q 568 1607 595 1607 z "},"":{"ha":901,"x_min":0,"x_max":867,"o":"m 563 -117 l 552 -117 q 395 -20 458 -106 q 299 185 333 66 q 256 415 265 304 q 193 397 227 397 q 169 398 190 397 q 118 422 149 399 q 0 694 1 518 q 77 1026 1 857 q 269 1314 154 1196 q 537 1449 399 1444 q 546 1448 543 1449 q 793 1261 710 1447 q 867 758 867 1106 q 856 532 867 654 q 772 107 833 284 q 563 -117 693 -117 m 480 76 q 495 79 488 76 q 563 178 535 98 q 633 553 612 319 q 642 681 642 642 q 644 807 644 732 q 586 1186 637 1078 q 542 1246 559 1246 l 541 1246 q 435 1178 499 1242 q 286 951 347 1087 q 223 696 224 816 q 258 583 224 623 q 323 736 273 690 q 394 764 356 764 q 424 762 399 764 q 499 711 448 760 q 514 676 514 696 l 514 665 q 496 640 513 654 q 458 626 479 626 q 418 642 434 626 q 403 659 406 654 q 400 662 401 662 q 367 548 376 637 q 366 518 366 536 q 370 421 366 486 q 388 267 373 355 q 429 122 402 179 q 480 76 450 76 m 608 1506 q 504 1549 572 1506 q 446 1591 468 1572 q 424 1629 424 1610 q 429 1653 424 1638 q 461 1688 434 1669 q 511 1707 488 1707 q 541 1687 532 1707 q 551 1647 547 1659 q 602 1563 562 1618 q 631 1517 631 1527 q 608 1506 631 1506 z "},"":{"ha":901,"x_min":0,"x_max":867,"o":"m 563 -117 l 552 -117 q 395 -20 458 -106 q 299 185 333 66 q 256 415 265 304 q 193 397 227 397 q 169 398 190 397 q 118 422 149 399 q 0 694 1 518 q 77 1026 1 857 q 269 1314 154 1196 q 537 1449 399 1444 q 546 1448 543 1449 q 793 1261 710 1447 q 867 758 867 1106 q 856 532 867 654 q 772 107 833 284 q 563 -117 693 -117 m 480 76 q 495 79 488 76 q 563 178 535 98 q 633 553 612 319 q 642 681 642 642 q 644 807 644 732 q 586 1186 637 1078 q 542 1246 559 1246 l 541 1246 q 435 1178 499 1242 q 286 951 347 1087 q 223 696 224 816 q 258 583 224 623 q 323 736 273 690 q 394 764 356 764 q 424 762 399 764 q 499 711 448 760 q 514 676 514 696 l 514 665 q 496 640 513 654 q 458 626 479 626 q 418 642 434 626 q 403 659 406 654 q 400 662 401 662 q 367 548 376 637 q 366 518 366 536 q 370 421 366 486 q 388 267 373 355 q 429 122 402 179 q 480 76 450 76 m 508 1482 q 485 1494 485 1482 q 513 1540 485 1503 q 565 1624 553 1595 q 575 1664 569 1636 q 604 1684 583 1684 q 655 1665 628 1684 q 687 1630 682 1646 q 692 1606 692 1615 q 670 1568 692 1587 q 612 1526 648 1549 q 508 1482 544 1482 z "},"":{"ha":901,"x_min":0,"x_max":867,"o":"m 563 -117 l 552 -117 q 395 -20 458 -106 q 299 185 333 66 q 256 415 265 304 q 193 397 227 397 q 169 398 190 397 q 118 422 149 399 q 0 694 1 518 q 77 1026 1 857 q 269 1314 154 1196 q 537 1449 399 1444 q 546 1448 543 1449 q 793 1261 710 1447 q 867 758 867 1106 q 856 532 867 654 q 772 107 833 284 q 563 -117 693 -117 m 480 76 q 495 79 488 76 q 563 178 535 98 q 633 553 612 319 q 642 681 642 642 q 644 807 644 732 q 586 1186 637 1078 q 542 1246 559 1246 l 541 1246 q 435 1178 499 1242 q 286 951 347 1087 q 223 696 224 816 q 258 583 224 623 q 323 736 273 690 q 394 764 356 764 q 424 762 399 764 q 499 711 448 760 q 514 676 514 696 l 514 665 q 496 640 513 654 q 458 626 479 626 q 418 642 434 626 q 403 659 406 654 q 400 662 401 662 q 367 548 376 637 q 366 518 366 536 q 370 421 366 486 q 388 267 373 355 q 429 122 402 179 q 480 76 450 76 m 449 1497 q 402 1517 423 1497 q 390 1541 390 1528 q 392 1551 390 1546 l 530 1763 q 551 1779 538 1779 q 564 1775 557 1779 q 621 1662 573 1765 l 667 1560 q 669 1550 669 1555 q 655 1523 669 1537 q 620 1503 642 1508 q 610 1501 614 1501 q 589 1514 596 1501 l 551 1687 l 472 1510 q 449 1497 465 1497 z "},"":{"ha":901,"x_min":0,"x_max":867,"o":"m 563 -117 l 552 -117 q 395 -20 458 -106 q 299 185 333 66 q 256 415 265 304 q 193 397 227 397 q 169 398 190 397 q 118 422 149 399 q 0 694 1 518 q 77 1026 1 857 q 269 1314 154 1196 q 537 1449 399 1444 q 546 1448 543 1449 q 793 1261 710 1447 q 867 758 867 1106 q 856 532 867 654 q 772 107 833 284 q 563 -117 693 -117 m 480 76 q 495 79 488 76 q 563 178 535 98 q 633 553 612 319 q 642 681 642 642 q 644 807 644 732 q 586 1186 637 1078 q 542 1246 559 1246 l 541 1246 q 435 1178 499 1242 q 286 951 347 1087 q 223 696 224 816 q 258 583 224 623 q 323 736 273 690 q 394 764 356 764 q 424 762 399 764 q 499 711 448 760 q 514 676 514 696 l 514 665 q 496 640 513 654 q 458 626 479 626 q 418 642 434 626 q 403 659 406 654 q 400 662 401 662 q 367 548 376 637 q 366 518 366 536 q 370 421 366 486 q 388 267 373 355 q 429 122 402 179 q 480 76 450 76 m 380 1460 q 356 1464 371 1460 q 332 1493 341 1468 q 323 1560 323 1531 q 376 1672 323 1641 q 420 1684 395 1684 q 548 1605 480 1684 q 607 1565 583 1565 q 638 1598 631 1565 q 640 1619 640 1608 q 632 1668 640 1638 q 629 1684 629 1678 q 656 1706 629 1706 q 710 1669 694 1706 q 728 1573 728 1611 q 669 1474 728 1491 q 650 1471 661 1471 q 595 1483 629 1471 q 511 1554 561 1496 q 456 1589 480 1589 q 418 1558 431 1589 q 412 1525 412 1544 q 414 1501 412 1514 q 416 1490 416 1495 q 391 1461 416 1469 q 380 1460 387 1460 z "},"":{"ha":901,"x_min":0,"x_max":867,"o":"m 563 -117 l 552 -117 q 395 -20 458 -106 q 299 185 333 66 q 256 415 265 304 q 193 397 227 397 q 169 398 190 397 q 118 422 149 399 q 0 694 1 518 q 77 1026 1 857 q 269 1314 154 1196 q 537 1449 399 1444 q 546 1448 543 1449 q 793 1261 710 1447 q 867 758 867 1106 q 856 532 867 654 q 772 107 833 284 q 563 -117 693 -117 m 480 76 q 495 79 488 76 q 563 178 535 98 q 633 553 612 319 q 642 681 642 642 q 644 807 644 732 q 586 1186 637 1078 q 542 1246 559 1246 l 541 1246 q 435 1178 499 1242 q 286 951 347 1087 q 223 696 224 816 q 258 583 224 623 q 323 736 273 690 q 394 764 356 764 q 424 762 399 764 q 499 711 448 760 q 514 676 514 696 l 514 665 q 496 640 513 654 q 458 626 479 626 q 418 642 434 626 q 403 659 406 654 q 400 662 401 662 q 367 548 376 637 q 366 518 366 536 q 370 421 366 486 q 388 267 373 355 q 429 122 402 179 q 480 76 450 76 m 486 1484 q 439 1506 458 1484 q 424 1551 424 1525 q 439 1596 424 1577 q 486 1618 458 1618 q 531 1596 513 1618 q 547 1551 547 1577 q 531 1506 547 1525 q 486 1484 513 1484 m 629 1484 q 583 1506 602 1484 q 568 1551 568 1525 q 583 1596 568 1577 q 629 1618 602 1618 q 675 1596 656 1618 q 690 1551 690 1577 q 675 1506 690 1525 q 629 1484 656 1484 z "},"":{"ha":416,"x_min":14,"x_max":382,"o":"m 323 521 q 307 528 315 521 l 195 627 l 89 532 q 73 525 81 525 q 40 549 52 525 q 37 559 37 554 q 45 576 37 568 l 138 677 l 18 785 q 14 798 14 791 q 24 822 14 806 q 58 850 35 838 q 79 857 69 857 q 93 851 87 857 l 196 740 l 302 855 q 317 861 309 861 q 343 851 326 861 q 374 822 360 842 q 382 802 382 810 q 378 789 382 795 l 253 678 l 351 572 q 358 555 358 564 q 334 523 358 534 q 323 521 328 521 z "},"":{"ha":901,"x_min":0,"x_max":867,"o":"m 463 -111 q 418 -9 420 -111 l 416 69 q 305 281 344 153 q 256 530 266 409 q 191 511 226 511 q 169 512 189 511 q 118 537 149 513 q 0 809 1 633 q 78 1141 1 972 q 269 1428 155 1310 q 393 1522 328 1487 l 392 1544 q 422 1628 393 1595 q 508 1670 459 1670 q 581 1586 579 1670 l 581 1560 q 793 1377 718 1541 q 867 872 867 1221 q 856 646 867 769 q 772 222 833 399 q 562 -3 693 -3 q 508 6 536 -3 l 507 -7 q 484 -100 506 -76 q 463 -111 473 -111 m 258 697 q 323 850 273 804 q 393 879 356 879 l 403 878 l 397 1249 q 286 1065 332 1169 q 223 811 224 930 q 258 697 224 737 m 413 275 l 405 771 q 400 777 402 777 q 367 663 375 752 q 366 630 366 649 q 413 275 366 433 m 517 209 q 589 383 562 262 q 629 625 616 504 q 643 796 642 745 q 644 892 644 846 l 644 922 q 570 1333 637 1223 l 517 209 z "},"":{"ha":910,"x_min":0,"x_max":876,"o":"m 733 -89 q 703 -86 718 -89 q 547 32 600 -68 q 418 -16 492 -14 q 68 348 165 -14 q 0 979 0 605 q 8 1300 0 1149 q 47 1381 12 1355 q 119 1405 79 1405 q 145 1404 121 1405 q 200 1375 169 1403 q 232 1292 232 1346 q 230 1255 232 1276 q 218 857 218 1011 q 221 680 218 793 q 242 423 223 567 q 302 189 260 279 q 416 96 344 98 q 538 393 505 101 q 561 876 561 593 q 559 1009 561 919 q 553 1200 557 1100 q 544 1330 548 1299 l 543 1345 q 571 1419 543 1390 q 659 1455 604 1455 q 725 1433 692 1455 q 767 1358 758 1412 q 780 1153 775 1293 q 782 1032 782 1096 q 776 803 782 942 q 743 492 770 665 q 659 189 715 320 l 660 180 l 659 170 q 657 143 657 156 q 699 57 657 83 q 734 45 718 45 q 743 49 742 45 q 764 96 744 77 q 812 114 783 114 q 858 93 840 112 q 876 46 876 73 q 849 -37 876 -3 q 784 -81 824 -68 q 733 -89 760 -89 m 408 1429 q 304 1472 372 1429 q 247 1514 269 1495 q 224 1552 224 1533 q 230 1577 224 1561 q 261 1611 235 1592 q 312 1630 288 1630 q 341 1610 333 1630 q 351 1571 347 1582 q 403 1487 363 1541 q 431 1440 431 1450 q 408 1429 431 1429 z "},"":{"ha":910,"x_min":0,"x_max":876,"o":"m 733 -89 q 703 -86 718 -89 q 547 32 600 -68 q 418 -16 492 -14 q 68 348 165 -14 q 0 979 0 605 q 8 1300 0 1149 q 47 1381 12 1355 q 119 1405 79 1405 q 145 1404 121 1405 q 200 1375 169 1403 q 232 1292 232 1346 q 230 1255 232 1276 q 218 857 218 1011 q 221 680 218 793 q 242 423 223 567 q 302 189 260 279 q 416 96 344 98 q 538 393 505 101 q 561 876 561 593 q 559 1009 561 919 q 553 1200 557 1100 q 544 1330 548 1299 l 543 1345 q 571 1419 543 1390 q 659 1455 604 1455 q 725 1433 692 1455 q 767 1358 758 1412 q 780 1153 775 1293 q 782 1032 782 1096 q 776 803 782 942 q 743 492 770 665 q 659 189 715 320 l 660 180 l 659 170 q 657 143 657 156 q 699 57 657 83 q 734 45 718 45 q 743 49 742 45 q 764 96 744 77 q 812 114 783 114 q 858 93 840 112 q 876 46 876 73 q 849 -37 876 -3 q 784 -81 824 -68 q 733 -89 760 -89 m 332 1413 q 309 1425 309 1413 q 337 1471 309 1434 q 389 1555 377 1526 q 399 1594 393 1567 q 428 1615 407 1615 q 478 1596 452 1615 q 510 1561 505 1577 q 515 1537 515 1546 q 493 1499 515 1518 q 435 1457 471 1480 q 332 1413 368 1413 z "},"":{"ha":910,"x_min":0,"x_max":876,"o":"m 733 -89 q 703 -86 718 -89 q 547 32 600 -68 q 418 -16 492 -14 q 68 348 165 -14 q 0 979 0 605 q 8 1300 0 1149 q 47 1381 12 1355 q 119 1405 79 1405 q 145 1404 121 1405 q 200 1375 169 1403 q 232 1292 232 1346 q 230 1255 232 1276 q 218 857 218 1011 q 221 680 218 793 q 242 423 223 567 q 302 189 260 279 q 416 96 344 98 q 538 393 505 101 q 561 876 561 593 q 559 1009 561 919 q 553 1200 557 1100 q 544 1330 548 1299 l 543 1345 q 571 1419 543 1390 q 659 1455 604 1455 q 725 1433 692 1455 q 767 1358 758 1412 q 780 1153 775 1293 q 782 1032 782 1096 q 776 803 782 942 q 743 492 770 665 q 659 189 715 320 l 660 180 l 659 170 q 657 143 657 156 q 699 57 657 83 q 734 45 718 45 q 743 49 742 45 q 764 96 744 77 q 812 114 783 114 q 858 93 840 112 q 876 46 876 73 q 849 -37 876 -3 q 784 -81 824 -68 q 733 -89 760 -89 m 303 1420 q 256 1440 277 1420 q 244 1464 244 1451 q 246 1474 244 1469 l 385 1687 q 406 1702 392 1702 q 418 1698 412 1702 q 475 1586 427 1689 l 522 1484 q 524 1473 524 1478 q 510 1446 524 1461 q 474 1426 496 1432 q 465 1425 469 1425 q 443 1438 450 1425 l 406 1610 l 326 1434 q 303 1420 319 1420 z "},"":{"ha":910,"x_min":0,"x_max":876,"o":"m 733 -89 q 703 -86 718 -89 q 547 32 600 -68 q 418 -16 492 -14 q 68 348 165 -14 q 0 979 0 605 q 8 1300 0 1149 q 47 1381 12 1355 q 119 1405 79 1405 q 145 1404 121 1405 q 200 1375 169 1403 q 232 1292 232 1346 q 230 1255 232 1276 q 218 857 218 1011 q 221 680 218 793 q 242 423 223 567 q 302 189 260 279 q 416 96 344 98 q 538 393 505 101 q 561 876 561 593 q 559 1009 561 919 q 553 1200 557 1100 q 544 1330 548 1299 l 543 1345 q 571 1419 543 1390 q 659 1455 604 1455 q 725 1433 692 1455 q 767 1358 758 1412 q 780 1153 775 1293 q 782 1032 782 1096 q 776 803 782 942 q 743 492 770 665 q 659 189 715 320 l 660 180 l 659 170 q 657 143 657 156 q 699 57 657 83 q 734 45 718 45 q 743 49 742 45 q 764 96 744 77 q 812 114 783 114 q 858 93 840 112 q 876 46 876 73 q 849 -37 876 -3 q 784 -81 824 -68 q 733 -89 760 -89 m 317 1446 q 271 1468 289 1446 q 255 1513 255 1487 q 271 1558 255 1539 q 317 1580 289 1580 q 362 1558 344 1580 q 378 1513 378 1539 q 362 1468 378 1487 q 317 1446 344 1446 m 460 1446 q 414 1468 433 1446 q 399 1513 399 1487 q 414 1558 399 1539 q 460 1580 433 1580 q 506 1558 488 1580 q 522 1513 522 1539 q 506 1468 522 1487 q 460 1446 488 1446 z "},"":{"ha":1023,"x_min":0,"x_max":989,"o":"m 562 -194 q 350 -103 469 -194 q 328 -59 328 -85 q 340 -24 328 -41 q 385 -3 358 -3 q 419 -14 403 -3 q 519 -56 475 -56 q 595 -22 550 -56 q 679 139 640 11 q 738 438 718 267 q 764 786 758 609 q 635 342 720 551 q 353 26 517 50 q 330 24 341 24 q 176 95 241 24 q 72 295 111 165 q 0 884 0 528 q 11 1184 0 1055 q 38 1388 22 1314 q 144 1475 60 1475 q 185 1469 157 1475 q 240 1429 214 1463 q 260 1369 260 1404 q 257 1341 260 1356 q 235 1154 243 1277 q 228 937 228 1053 q 229 821 228 909 q 246 593 230 733 q 298 354 262 453 q 395 233 334 256 q 410 231 402 231 q 490 292 450 231 q 622 661 560 402 q 659 825 656 806 q 732 1264 716 1082 q 737 1350 737 1311 q 730 1438 737 1400 q 724 1489 724 1464 q 735 1555 724 1517 q 810 1610 747 1593 q 833 1613 822 1613 q 979 1379 950 1613 q 989 1119 989 1282 q 943 486 989 789 q 753 -86 884 90 q 562 -194 673 -194 m 437 1459 q 414 1470 414 1459 q 443 1516 414 1480 q 494 1600 483 1571 q 505 1640 498 1612 q 534 1660 513 1660 q 584 1641 557 1660 q 616 1607 611 1622 q 621 1582 621 1591 q 599 1544 621 1563 q 541 1502 577 1525 q 437 1459 473 1459 z "},"":{"ha":1023,"x_min":0,"x_max":989,"o":"m 435 1431 q 389 1453 407 1431 q 373 1498 373 1472 q 389 1543 373 1524 q 435 1565 407 1565 q 480 1543 462 1565 q 496 1498 496 1524 q 480 1453 496 1472 q 435 1431 462 1431 m 578 1431 q 532 1453 551 1431 q 517 1498 517 1472 q 532 1543 517 1524 q 578 1565 551 1565 q 624 1543 606 1565 q 640 1498 640 1524 q 624 1453 640 1472 q 578 1431 606 1431 m 562 -194 q 350 -103 469 -194 q 328 -59 328 -85 q 340 -24 328 -41 q 385 -3 358 -3 q 419 -14 403 -3 q 519 -56 475 -56 q 595 -22 550 -56 q 679 139 640 11 q 738 438 718 267 q 764 786 758 609 q 635 342 720 551 q 353 26 517 50 q 330 24 341 24 q 176 95 241 24 q 72 295 111 165 q 0 884 0 528 q 11 1184 0 1055 q 38 1388 22 1314 q 144 1475 60 1475 q 185 1469 157 1475 q 240 1429 214 1463 q 260 1369 260 1404 q 257 1341 260 1356 q 235 1154 243 1277 q 228 937 228 1053 q 229 821 228 909 q 246 593 230 733 q 298 354 262 453 q 395 233 334 256 q 410 231 402 231 q 490 292 450 231 q 622 661 560 402 q 659 825 656 806 q 732 1264 716 1082 q 737 1350 737 1311 q 730 1438 737 1400 q 724 1489 724 1464 q 735 1555 724 1517 q 810 1610 747 1593 q 833 1613 822 1613 q 979 1379 950 1613 q 989 1119 989 1282 q 943 486 989 789 q 753 -86 884 90 q 562 -194 673 -194 z "},"":{"ha":1004,"x_min":0,"x_max":970,"o":"m 114 95 l 112 95 q 37 122 70 95 q 1 203 3 149 l 0 243 q 7 454 0 321 q 33 763 14 587 q 85 1104 52 939 q 169 1388 119 1270 q 288 1540 218 1506 q 347 1552 318 1552 q 476 1488 407 1552 q 580 1267 545 1423 q 589 1185 589 1226 q 574 1078 589 1131 l 596 1079 q 716 1067 650 1079 q 845 1023 783 1056 q 943 932 908 991 q 970 821 970 882 q 966 762 970 807 q 923 638 962 718 q 826 488 885 559 q 644 326 743 387 q 469 268 551 268 q 416 270 463 268 q 322 371 370 273 q 288 573 288 441 q 294 691 288 627 q 334 766 299 738 q 407 792 366 792 l 415 792 q 491 751 463 786 q 517 680 517 721 l 516 670 q 514 621 514 643 q 595 483 514 483 q 643 493 608 483 q 731 557 677 504 q 832 705 797 621 q 850 791 850 750 q 836 863 850 829 q 665 960 789 954 q 612 961 638 961 q 560 960 585 961 q 512 958 534 958 q 462 960 485 958 q 416 1010 416 968 q 431 1049 416 1031 q 477 1182 477 1098 q 470 1245 477 1213 q 416 1367 445 1367 q 386 1339 401 1367 q 304 1023 341 1246 q 245 566 267 800 q 224 222 224 346 l 224 207 q 191 124 223 152 q 114 95 158 96 z "},"":{"ha":623,"x_min":14,"x_max":590,"o":"m 444 66 q 418 68 441 66 q 363 98 395 69 q 253 77 307 77 q 156 93 217 77 q 47 186 95 108 q 14 321 14 240 q 93 568 14 461 q 224 680 147 642 q 344 707 281 707 q 385 705 364 707 q 351 790 380 773 q 337 793 345 793 q 259 743 309 793 q 209 711 243 711 q 184 718 197 711 q 153 767 153 734 q 159 793 153 780 q 365 976 282 943 q 425 989 397 989 q 505 948 466 989 q 566 804 544 907 q 590 537 590 689 q 581 336 590 437 q 555 170 571 235 q 516 90 551 115 q 444 66 484 66 m 300 197 q 334 204 316 197 l 343 258 q 385 588 377 460 l 378 588 q 310 549 339 588 q 264 456 281 511 q 235 301 235 362 q 252 226 235 255 q 300 197 269 197 m 430 1038 q 326 1082 394 1038 q 268 1124 290 1105 q 246 1162 246 1143 q 251 1186 246 1171 q 283 1221 256 1202 q 334 1240 310 1240 q 363 1219 355 1240 q 373 1180 369 1192 q 425 1096 385 1151 q 453 1050 453 1059 q 430 1038 453 1038 z "},"":{"ha":623,"x_min":14,"x_max":590,"o":"m 444 66 q 418 68 441 66 q 363 98 395 69 q 253 77 307 77 q 156 93 217 77 q 47 186 95 108 q 14 321 14 240 q 93 568 14 461 q 224 680 147 642 q 344 707 281 707 q 385 705 364 707 q 351 790 380 773 q 337 793 345 793 q 259 743 309 793 q 209 711 243 711 q 184 718 197 711 q 153 767 153 734 q 159 793 153 780 q 365 976 282 943 q 425 989 397 989 q 505 948 466 989 q 566 804 544 907 q 590 537 590 689 q 581 336 590 437 q 555 170 571 235 q 516 90 551 115 q 444 66 484 66 m 300 197 q 334 204 316 197 l 343 258 q 385 588 377 460 l 378 588 q 310 549 339 588 q 264 456 281 511 q 235 301 235 362 q 252 226 235 255 q 300 197 269 197 m 348 1038 q 325 1050 325 1038 q 353 1096 325 1059 q 405 1180 393 1151 q 415 1219 409 1192 q 444 1240 423 1240 q 495 1221 468 1240 q 527 1186 522 1202 q 532 1162 532 1171 q 510 1124 532 1143 q 452 1082 488 1105 q 348 1038 384 1038 z "},"":{"ha":623,"x_min":14,"x_max":590,"o":"m 444 66 q 418 68 441 66 q 363 98 395 69 q 253 77 307 77 q 156 93 217 77 q 47 186 95 108 q 14 321 14 240 q 93 568 14 461 q 224 680 147 642 q 344 707 281 707 q 385 705 364 707 q 351 790 380 773 q 337 793 345 793 q 259 743 309 793 q 209 711 243 711 q 184 718 197 711 q 153 767 153 734 q 159 793 153 780 q 365 976 282 943 q 425 989 397 989 q 505 948 466 989 q 566 804 544 907 q 590 537 590 689 q 581 336 590 437 q 555 170 571 235 q 516 90 551 115 q 444 66 484 66 m 300 197 q 334 204 316 197 l 343 258 q 385 588 377 460 l 378 588 q 310 549 339 588 q 264 456 281 511 q 235 301 235 362 q 252 226 235 255 q 300 197 269 197 m 290 1010 q 243 1030 264 1010 q 231 1054 231 1041 q 233 1064 231 1059 l 371 1276 q 392 1292 378 1292 q 404 1288 398 1292 q 461 1175 414 1278 l 508 1074 q 510 1063 510 1068 q 496 1036 510 1050 q 460 1016 482 1021 q 451 1015 455 1015 q 429 1027 437 1015 l 392 1200 l 313 1023 q 290 1010 305 1010 z "},"":{"ha":623,"x_min":14,"x_max":590,"o":"m 444 66 q 418 68 441 66 q 363 98 395 69 q 253 77 307 77 q 156 93 217 77 q 47 186 95 108 q 14 321 14 240 q 93 568 14 461 q 224 680 147 642 q 344 707 281 707 q 385 705 364 707 q 351 790 380 773 q 337 793 345 793 q 259 743 309 793 q 209 711 243 711 q 184 718 197 711 q 153 767 153 734 q 159 793 153 780 q 365 976 282 943 q 425 989 397 989 q 505 948 466 989 q 566 804 544 907 q 590 537 590 689 q 581 336 590 437 q 555 170 571 235 q 516 90 551 115 q 444 66 484 66 m 300 197 q 334 204 316 197 l 343 258 q 385 588 377 460 l 378 588 q 310 549 339 588 q 264 456 281 511 q 235 301 235 362 q 252 226 235 255 q 300 197 269 197 m 237 988 q 213 992 228 988 q 189 1021 198 996 q 180 1088 180 1059 q 233 1200 180 1169 q 277 1212 252 1212 q 405 1133 337 1212 q 464 1093 439 1093 q 495 1126 488 1093 q 497 1147 497 1136 q 489 1196 497 1166 q 486 1212 486 1206 q 513 1234 486 1234 q 567 1197 551 1234 q 585 1101 585 1139 q 526 1002 585 1019 q 507 999 517 999 q 452 1011 486 999 q 368 1082 418 1024 q 313 1117 337 1117 q 275 1086 288 1117 q 269 1053 269 1072 q 271 1029 269 1042 q 273 1018 273 1023 q 248 989 273 997 q 237 988 243 988 z "},"":{"ha":623,"x_min":14,"x_max":590,"o":"m 444 66 q 418 68 441 66 q 363 98 395 69 q 253 77 307 77 q 156 93 217 77 q 47 186 95 108 q 14 321 14 240 q 93 568 14 461 q 224 680 147 642 q 344 707 281 707 q 385 705 364 707 q 351 790 380 773 q 337 793 345 793 q 259 743 309 793 q 209 711 243 711 q 184 718 197 711 q 153 767 153 734 q 159 793 153 780 q 365 976 282 943 q 425 989 397 989 q 505 948 466 989 q 566 804 544 907 q 590 537 590 689 q 581 336 590 437 q 555 170 571 235 q 516 90 551 115 q 444 66 484 66 m 300 197 q 334 204 316 197 l 343 258 q 385 588 377 460 l 378 588 q 310 549 339 588 q 264 456 281 511 q 235 301 235 362 q 252 226 235 255 q 300 197 269 197 m 304 1003 q 258 1025 276 1003 q 242 1070 242 1044 q 258 1115 242 1096 q 304 1137 276 1137 q 349 1115 331 1137 q 365 1070 365 1096 q 349 1025 365 1044 q 304 1003 331 1003 m 447 1003 q 401 1025 420 1003 q 386 1070 386 1044 q 401 1115 386 1096 q 447 1137 420 1137 q 493 1115 475 1137 q 509 1070 509 1096 q 493 1025 509 1044 q 447 1003 475 1003 z "},"":{"ha":623,"x_min":14,"x_max":590,"o":"m 444 66 q 418 68 441 66 q 363 98 395 69 q 253 77 307 77 q 156 93 217 77 q 47 186 95 108 q 14 321 14 240 q 93 568 14 461 q 224 680 147 642 q 344 707 281 707 q 385 705 364 707 q 351 790 380 773 q 337 793 345 793 q 259 743 309 793 q 209 711 243 711 q 184 718 197 711 q 153 767 153 734 q 159 793 153 780 q 365 976 282 943 q 425 989 397 989 q 505 948 466 989 q 566 804 544 907 q 590 537 590 689 q 581 336 590 437 q 555 170 571 235 q 516 90 551 115 q 444 66 484 66 m 300 197 q 334 204 316 197 l 343 258 q 385 588 377 460 l 378 588 q 310 549 339 588 q 264 456 281 511 q 235 301 235 362 q 252 226 235 255 q 300 197 269 197 m 352 1018 l 349 1018 q 259 1050 288 1018 q 229 1128 229 1082 q 230 1152 229 1128 q 257 1213 230 1176 q 337 1257 285 1250 l 345 1257 q 431 1223 393 1257 q 471 1130 470 1189 q 463 1084 471 1109 q 429 1040 454 1059 q 352 1018 403 1021 m 339 1054 q 386 1082 373 1057 q 395 1123 395 1101 q 393 1148 395 1130 q 375 1188 391 1166 q 334 1212 359 1211 q 300 1185 313 1210 q 284 1121 284 1157 q 295 1076 284 1095 q 336 1054 307 1054 l 339 1054 z "},"":{"ha":1093,"x_min":14,"x_max":1059,"o":"m 300 197 q 334 204 316 197 l 343 258 q 385 588 377 460 l 378 588 q 310 549 339 588 q 264 456 281 511 q 235 301 235 362 q 252 226 235 255 q 300 197 269 197 m 793 428 l 808 443 q 920 625 875 521 q 952 753 952 709 q 951 768 952 761 q 922 806 945 806 q 913 804 918 806 q 846 734 872 791 q 806 595 819 677 q 793 428 793 513 m 578 311 q 555 170 569 227 q 516 90 551 115 q 444 66 484 66 q 418 68 441 66 q 363 98 395 69 q 253 77 307 77 q 156 93 217 77 q 47 186 95 108 q 14 321 14 240 q 93 568 14 461 q 224 680 147 642 q 344 707 281 707 q 385 705 364 707 q 351 790 380 773 q 337 793 345 793 q 259 743 309 793 q 209 711 243 711 q 184 718 197 711 q 153 767 153 734 q 159 793 153 780 q 365 976 282 943 q 425 989 397 989 q 505 948 466 989 q 566 804 544 907 q 586 656 580 736 q 626 798 598 722 q 740 970 668 913 q 840 1006 784 1006 q 913 992 874 1006 q 1012 912 972 970 q 1059 748 1059 844 q 1023 582 1059 672 q 892 369 970 460 q 802 290 848 319 q 826 190 810 231 q 884 130 848 130 q 960 172 915 130 q 998 189 979 189 q 1053 146 1037 189 q 1055 130 1055 138 q 1038 92 1055 111 q 804 -33 910 -33 l 798 -33 q 658 58 711 -26 q 583 273 604 143 q 578 311 581 292 z "},"":{"ha":1088,"x_min":14,"x_max":1055,"o":"m 789 428 l 804 443 q 916 625 871 521 q 948 753 948 709 q 947 768 948 761 q 918 806 941 806 q 909 804 913 806 q 842 734 868 791 q 802 595 815 677 q 789 428 789 513 m 244 117 q 334 215 300 117 q 363 451 363 296 q 342 665 363 559 q 296 816 324 757 q 235 880 268 875 q 168 801 196 880 q 128 604 140 722 q 121 467 121 535 q 127 337 121 418 q 165 182 133 255 q 244 117 194 117 m 583 661 q 622 798 595 725 q 736 970 664 913 q 836 1006 780 1006 q 909 992 870 1006 q 1008 912 968 970 q 1055 748 1055 844 q 1019 582 1055 672 q 888 369 966 460 q 798 290 844 319 q 822 190 806 231 q 880 130 844 130 q 956 172 911 130 q 994 189 975 189 q 1048 146 1033 189 q 1051 130 1051 138 q 1034 92 1051 111 q 800 -33 906 -33 l 794 -33 q 654 58 707 -26 q 579 273 600 143 q 577 287 578 280 q 542 144 564 211 q 309 -72 474 -52 l 291 -73 q 138 2 201 -73 q 44 207 76 76 q 14 482 14 335 q 14 562 14 485 q 44 779 14 640 q 131 1013 74 918 q 271 1126 189 1108 q 294 1128 283 1128 q 431 1056 363 1128 q 547 834 500 983 q 583 661 571 754 z "},"":{"ha":535,"x_min":14,"x_max":501,"o":"m 248 -256 q 182 -224 203 -256 q 173 -197 173 -210 q 177 -177 173 -190 q 214 -159 182 -163 l 224 -159 q 274 -157 253 -159 q 309 -144 309 -153 q 284 -130 309 -137 q 231 -108 259 -123 q 184 -18 184 -83 q 186 19 184 4 q 52 192 100 77 q 14 391 14 285 q 20 498 14 416 q 116 699 26 579 q 394 884 206 818 q 437 892 418 892 q 473 883 458 892 q 496 848 496 871 q 491 824 496 842 q 425 775 487 806 q 310 664 351 739 q 248 406 248 552 q 257 302 248 363 q 302 191 266 241 q 381 146 333 146 l 393 146 q 428 149 412 149 q 501 107 501 149 q 452 39 501 78 q 304 -18 376 -18 q 283 -16 294 -18 l 283 -20 q 286 -30 283 -27 q 299 -33 289 -32 q 314 -36 305 -34 q 388 -77 365 -48 q 412 -134 412 -106 q 380 -201 412 -171 q 303 -245 347 -231 q 248 -256 274 -256 z "},"":{"ha":536,"x_min":14,"x_max":503,"o":"m 248 -33 l 242 -33 q 102 58 155 -26 q 27 273 48 143 q 14 448 14 359 q 21 589 14 495 q 70 798 28 682 q 184 970 112 913 q 283 1006 228 1006 q 357 992 318 1006 q 456 912 416 970 q 503 748 503 844 q 467 582 503 672 q 336 369 414 460 q 246 290 292 319 q 270 190 254 231 q 328 130 292 130 q 404 172 359 130 q 442 189 422 189 q 496 146 481 189 q 499 130 499 138 q 482 92 499 111 q 248 -33 354 -33 m 237 428 l 252 443 q 363 625 319 521 q 396 753 396 709 q 395 768 396 761 q 366 806 389 806 q 357 804 361 806 q 290 734 316 791 q 250 595 263 677 q 237 428 237 513 m 351 1043 q 248 1086 315 1043 q 190 1128 212 1109 q 168 1166 168 1147 q 173 1191 168 1175 q 204 1225 178 1206 q 255 1244 231 1244 q 284 1224 276 1244 q 294 1185 290 1196 q 346 1101 306 1156 q 374 1055 374 1064 q 351 1043 374 1043 z "},"":{"ha":536,"x_min":14,"x_max":503,"o":"m 248 -33 l 242 -33 q 102 58 155 -26 q 27 273 48 143 q 14 448 14 359 q 21 589 14 495 q 70 798 28 682 q 184 970 112 913 q 283 1006 228 1006 q 357 992 318 1006 q 456 912 416 970 q 503 748 503 844 q 467 582 503 672 q 336 369 414 460 q 246 290 292 319 q 270 190 254 231 q 328 130 292 130 q 404 172 359 130 q 442 189 422 189 q 496 146 481 189 q 499 130 499 138 q 482 92 499 111 q 248 -33 354 -33 m 237 428 l 252 443 q 363 625 319 521 q 396 753 396 709 q 395 768 396 761 q 366 806 389 806 q 357 804 361 806 q 290 734 316 791 q 250 595 263 677 q 237 428 237 513 m 254 1034 q 231 1045 231 1034 q 260 1091 231 1055 q 311 1175 300 1146 q 321 1215 315 1187 q 351 1235 330 1235 q 401 1216 374 1235 q 433 1181 428 1197 q 438 1157 438 1166 q 416 1119 438 1138 q 358 1077 394 1100 q 254 1034 290 1034 z "},"":{"ha":536,"x_min":14,"x_max":503,"o":"m 248 -33 l 242 -33 q 102 58 155 -26 q 27 273 48 143 q 14 448 14 359 q 21 589 14 495 q 70 798 28 682 q 184 970 112 913 q 283 1006 228 1006 q 357 992 318 1006 q 456 912 416 970 q 503 748 503 844 q 467 582 503 672 q 336 369 414 460 q 246 290 292 319 q 270 190 254 231 q 328 130 292 130 q 404 172 359 130 q 442 189 422 189 q 496 146 481 189 q 499 130 499 138 q 482 92 499 111 q 248 -33 354 -33 m 237 428 l 252 443 q 363 625 319 521 q 396 753 396 709 q 395 768 396 761 q 366 806 389 806 q 357 804 361 806 q 290 734 316 791 q 250 595 263 677 q 237 428 237 513 m 216 1015 q 169 1035 190 1015 q 157 1059 157 1046 q 159 1069 157 1063 l 297 1281 q 318 1297 304 1297 q 330 1293 324 1297 q 387 1180 340 1283 l 434 1078 q 436 1067 436 1073 q 422 1041 436 1055 q 387 1021 408 1026 q 377 1019 381 1019 q 355 1032 363 1019 l 318 1204 l 239 1028 q 216 1015 231 1015 z "},"":{"ha":536,"x_min":14,"x_max":503,"o":"m 248 -33 l 242 -33 q 102 58 155 -26 q 27 273 48 143 q 14 448 14 359 q 21 589 14 495 q 70 798 28 682 q 184 970 112 913 q 283 1006 228 1006 q 357 992 318 1006 q 456 912 416 970 q 503 748 503 844 q 467 582 503 672 q 336 369 414 460 q 246 290 292 319 q 270 190 254 231 q 328 130 292 130 q 404 172 359 130 q 442 189 422 189 q 496 146 481 189 q 499 130 499 138 q 482 92 499 111 q 248 -33 354 -33 m 237 428 l 252 443 q 363 625 319 521 q 396 753 396 709 q 395 768 396 761 q 366 806 389 806 q 357 804 361 806 q 290 734 316 791 q 250 595 263 677 q 237 428 237 513 m 220 1013 q 174 1035 193 1013 q 159 1080 159 1054 q 174 1124 159 1105 q 220 1147 193 1147 q 266 1124 248 1147 q 281 1080 281 1105 q 266 1035 281 1054 q 220 1013 248 1013 m 363 1013 q 318 1035 336 1013 q 302 1080 302 1054 q 318 1124 302 1105 q 363 1147 336 1147 q 410 1124 391 1147 q 425 1080 425 1105 q 410 1035 425 1054 q 363 1013 391 1013 z "},"":{"ha":376,"x_min":14,"x_max":342,"o":"m 209 20 q 170 50 183 20 q 161 96 161 67 l 162 113 q 163 144 163 127 q 151 307 163 201 q 120 531 140 412 q 85 711 100 650 q 77 778 77 748 q 93 845 77 811 q 151 888 110 878 q 176 892 163 892 q 238 873 203 892 q 293 802 272 854 q 342 513 342 661 q 323 311 342 417 q 241 32 279 61 q 209 20 224 20 m 197 939 q 94 982 161 939 q 36 1024 58 1005 q 14 1062 14 1043 q 19 1086 14 1071 q 51 1121 24 1102 q 101 1140 77 1140 q 130 1120 122 1140 q 140 1080 136 1092 q 192 996 152 1051 q 220 950 220 960 q 197 939 220 939 z "},"":{"ha":313,"x_min":14,"x_max":279,"o":"m 146 20 q 106 50 120 20 q 98 96 98 67 l 99 113 q 100 144 100 127 q 88 307 100 201 q 57 531 77 412 q 22 711 37 650 q 14 778 14 748 q 30 845 14 811 q 87 888 47 878 q 113 892 100 892 q 175 873 140 892 q 230 802 209 854 q 279 513 279 661 q 260 311 279 417 q 178 32 216 61 q 146 20 161 20 m 58 939 q 35 950 35 939 q 63 996 35 960 q 115 1080 103 1051 q 125 1120 119 1092 q 154 1140 133 1140 q 204 1121 178 1140 q 236 1086 231 1102 q 241 1062 241 1071 q 219 1024 241 1043 q 161 982 197 1005 q 58 939 94 939 z "},"":{"ha":346,"x_min":14,"x_max":312,"o":"m 178 20 q 139 50 153 20 q 131 96 131 67 l 132 113 q 132 144 132 127 q 121 307 132 201 q 90 531 109 412 q 55 711 70 650 q 46 778 46 748 q 63 845 46 811 q 120 888 79 878 q 145 892 133 892 q 207 873 173 892 q 262 802 241 854 q 312 513 312 661 q 293 311 312 417 q 210 32 248 61 q 178 20 194 20 m 73 926 q 26 946 47 926 q 14 970 14 957 q 16 980 14 975 l 154 1192 q 175 1208 161 1208 q 187 1204 181 1208 q 244 1091 197 1194 l 291 989 q 293 979 293 984 q 279 952 293 966 q 243 932 265 937 q 234 930 238 930 q 212 943 220 930 l 175 1116 l 96 939 q 73 926 88 926 z "},"":{"ha":349,"x_min":14,"x_max":315,"o":"m 182 20 q 142 50 156 20 q 134 96 134 67 l 135 113 q 136 144 136 127 q 124 307 136 201 q 93 531 113 412 q 58 711 73 650 q 50 778 50 748 q 66 845 50 811 q 123 888 83 878 q 149 892 136 892 q 211 873 176 892 q 266 802 245 854 q 315 513 315 661 q 296 311 315 417 q 214 32 252 61 q 182 20 197 20 m 75 911 q 29 933 47 911 q 14 978 14 952 q 29 1023 14 1004 q 75 1045 47 1045 q 121 1023 102 1045 q 136 978 136 1004 q 121 933 136 952 q 75 911 102 911 m 218 911 q 173 933 191 911 q 157 978 157 952 q 173 1023 157 1004 q 218 1045 191 1045 q 264 1023 246 1045 q 280 978 280 1004 q 264 933 280 952 q 218 911 246 911 z "},"":{"ha":707,"x_min":14,"x_max":673,"o":"m 291 -82 q 139 -8 201 -82 q 45 197 76 66 q 14 473 14 325 q 14 553 14 475 q 44 769 14 630 q 131 1003 74 908 q 271 1117 189 1098 q 294 1119 283 1119 q 402 1075 350 1119 l 420 1135 l 265 1179 q 253 1201 253 1185 q 272 1255 253 1227 q 298 1272 284 1272 q 445 1217 301 1272 l 490 1367 q 518 1381 496 1381 q 534 1381 520 1381 q 569 1369 547 1381 q 587 1345 587 1359 q 524 1186 587 1342 l 658 1134 q 673 1109 673 1128 q 664 1082 673 1095 q 645 1074 656 1074 q 494 1115 641 1074 l 454 1018 q 555 795 517 933 q 593 486 593 659 q 542 135 593 285 q 309 -81 475 -62 l 291 -82 m 244 108 q 334 205 300 108 q 363 441 363 287 q 342 656 363 550 q 296 806 324 747 q 236 870 268 865 q 168 791 196 870 q 128 594 140 712 q 121 457 121 526 q 127 327 121 409 q 165 172 134 245 q 244 108 194 108 z "},"":{"ha":829,"x_min":14,"x_max":795,"o":"m 201 -52 q 134 -24 169 -52 q 81 83 98 3 q 14 654 14 431 q 25 844 14 703 q 131 1021 36 985 q 154 1025 142 1025 q 264 969 197 1025 q 421 784 332 913 q 606 475 511 655 q 529 901 584 684 q 526 928 526 915 q 545 991 526 958 q 610 1036 565 1023 q 638 1040 625 1040 q 701 1020 669 1040 q 747 955 734 1000 q 787 699 773 848 q 795 498 795 599 q 791 347 795 448 q 753 131 787 245 q 680 22 725 47 q 645 10 661 10 q 606 31 623 10 q 587 106 587 54 q 592 170 587 134 q 593 191 593 180 q 567 314 593 237 q 489 487 540 391 q 384 663 438 583 q 288 778 329 742 q 252 796 266 796 q 224 682 224 796 q 303 113 224 498 q 307 73 307 92 q 286 -4 307 31 q 221 -50 264 -40 q 201 -52 211 -52 m 485 1044 q 440 1053 471 1044 q 372 1122 410 1062 q 340 1148 355 1148 q 330 1147 339 1148 q 310 1126 321 1145 q 297 1084 299 1106 q 279 1070 295 1070 q 265 1072 277 1070 q 232 1086 253 1073 q 210 1116 212 1099 q 250 1204 213 1178 q 302 1221 273 1221 q 349 1212 317 1221 q 415 1147 380 1203 q 454 1110 438 1110 q 461 1113 458 1110 q 476 1160 476 1124 l 475 1172 q 505 1191 476 1191 q 541 1183 522 1191 q 564 1158 561 1175 l 564 1146 q 534 1063 564 1088 q 485 1044 513 1044 z "},"":{"ha":627,"x_min":14,"x_max":593,"o":"m 291 -73 q 138 2 201 -73 q 44 207 76 76 q 14 482 14 335 q 14 562 14 485 q 44 779 14 640 q 131 1013 74 918 q 271 1126 189 1108 q 294 1128 283 1128 q 431 1056 363 1128 q 546 834 500 983 q 593 490 593 686 q 542 144 593 294 q 309 -72 474 -52 l 291 -73 m 244 117 q 334 215 300 117 q 363 451 363 296 q 342 665 363 559 q 296 816 324 757 q 235 880 268 875 q 168 801 196 880 q 128 604 140 722 q 121 467 121 535 q 127 337 121 418 q 165 182 133 255 q 244 117 194 117 m 351 1137 q 248 1180 315 1137 q 190 1222 212 1203 q 168 1260 168 1241 q 173 1284 168 1269 q 204 1319 178 1300 q 255 1338 231 1338 q 284 1318 276 1338 q 294 1278 290 1290 q 346 1194 306 1249 q 374 1148 374 1158 q 351 1137 374 1137 z "},"":{"ha":627,"x_min":14,"x_max":593,"o":"m 291 -73 q 138 2 201 -73 q 44 207 76 76 q 14 482 14 335 q 14 562 14 485 q 44 779 14 640 q 131 1013 74 918 q 271 1126 189 1108 q 294 1128 283 1128 q 431 1056 363 1128 q 546 834 500 983 q 593 490 593 686 q 542 144 593 294 q 309 -72 474 -52 l 291 -73 m 244 117 q 334 215 300 117 q 363 451 363 296 q 342 665 363 559 q 296 816 324 757 q 235 880 268 875 q 168 801 196 880 q 128 604 140 722 q 121 467 121 535 q 127 337 121 418 q 165 182 133 255 q 244 117 194 117 m 225 1132 q 202 1143 202 1132 q 231 1190 202 1153 q 282 1274 271 1244 q 292 1313 286 1285 q 321 1333 300 1333 q 372 1314 345 1333 q 404 1280 399 1295 q 409 1255 409 1264 q 387 1217 409 1236 q 329 1175 365 1198 q 225 1132 261 1132 z "},"":{"ha":627,"x_min":14,"x_max":593,"o":"m 291 -73 q 138 2 201 -73 q 44 207 76 76 q 14 482 14 335 q 14 562 14 485 q 44 779 14 640 q 131 1013 74 918 q 271 1126 189 1108 q 294 1128 283 1128 q 431 1056 363 1128 q 546 834 500 983 q 593 490 593 686 q 542 144 593 294 q 309 -72 474 -52 l 291 -73 m 244 117 q 334 215 300 117 q 363 451 363 296 q 342 665 363 559 q 296 816 324 757 q 235 880 268 875 q 168 801 196 880 q 128 604 140 722 q 121 467 121 535 q 127 337 121 418 q 165 182 133 255 q 244 117 194 117 m 206 1142 q 159 1162 180 1142 q 147 1186 147 1173 q 149 1196 147 1191 l 288 1409 q 309 1424 295 1424 q 321 1420 315 1424 q 378 1308 330 1411 l 425 1206 q 427 1195 427 1200 q 413 1168 427 1183 q 377 1148 399 1154 q 368 1147 372 1147 q 346 1160 353 1147 l 309 1332 l 229 1156 q 206 1142 222 1142 z "},"":{"ha":627,"x_min":14,"x_max":593,"o":"m 291 -73 q 138 2 201 -73 q 44 207 76 76 q 14 482 14 335 q 14 562 14 485 q 44 779 14 640 q 131 1013 74 918 q 271 1126 189 1108 q 294 1128 283 1128 q 431 1056 363 1128 q 546 834 500 983 q 593 490 593 686 q 542 144 593 294 q 309 -72 474 -52 l 291 -73 m 244 117 q 334 215 300 117 q 363 451 363 296 q 342 665 363 559 q 296 816 324 757 q 235 880 268 875 q 168 801 196 880 q 128 604 140 722 q 121 467 121 535 q 127 337 121 418 q 165 182 133 255 q 244 117 194 117 m 159 1106 q 134 1110 149 1106 q 111 1139 119 1114 q 102 1206 102 1177 q 155 1318 102 1287 q 198 1330 174 1330 q 326 1251 258 1330 q 385 1211 361 1211 q 416 1244 409 1211 q 418 1265 418 1254 q 410 1314 418 1284 q 407 1330 407 1324 q 434 1352 407 1352 q 488 1315 473 1352 q 506 1219 506 1257 q 448 1120 506 1137 q 428 1117 439 1117 q 373 1129 407 1117 q 289 1200 339 1142 q 234 1235 258 1235 q 196 1204 209 1235 q 190 1171 190 1190 q 193 1147 190 1160 q 194 1136 194 1141 q 170 1107 194 1115 q 159 1106 165 1106 z "},"":{"ha":627,"x_min":14,"x_max":593,"o":"m 291 -73 q 138 2 201 -73 q 44 207 76 76 q 14 482 14 335 q 14 562 14 485 q 44 779 14 640 q 131 1013 74 918 q 271 1126 189 1108 q 294 1128 283 1128 q 431 1056 363 1128 q 546 834 500 983 q 593 490 593 686 q 542 144 593 294 q 309 -72 474 -52 l 291 -73 m 244 117 q 334 215 300 117 q 363 451 363 296 q 342 665 363 559 q 296 816 324 757 q 235 880 268 875 q 168 801 196 880 q 128 604 140 722 q 121 467 121 535 q 127 337 121 418 q 165 182 133 255 q 244 117 194 117 m 225 1141 q 179 1163 197 1141 q 163 1208 163 1182 q 179 1253 163 1234 q 225 1275 197 1275 q 271 1253 252 1275 q 286 1208 286 1234 q 271 1163 286 1182 q 225 1141 252 1141 m 368 1141 q 323 1163 341 1141 q 307 1208 307 1182 q 323 1253 307 1234 q 368 1275 341 1275 q 414 1253 396 1275 q 430 1208 430 1234 q 414 1163 430 1182 q 368 1141 396 1141 z "},"":{"ha":481,"x_min":14,"x_max":448,"o":"m 425 536 l 39 556 q 14 587 14 557 q 39 619 14 617 l 418 635 q 443 610 435 634 q 448 578 448 594 q 445 554 448 570 q 425 536 442 538 m 222 644 q 177 667 195 644 q 161 711 161 686 q 177 756 161 737 q 222 779 195 779 q 269 756 250 779 q 284 711 284 737 q 269 667 284 686 q 222 644 250 644 m 226 394 q 180 416 198 394 q 164 461 164 435 q 180 506 164 487 q 226 528 198 528 q 271 506 253 528 q 288 461 288 487 q 271 416 288 435 q 226 394 253 394 z "},"":{"ha":626,"x_min":14,"x_max":592,"o":"m 239 -146 q 203 -66 205 -146 l 203 -62 q 80 90 125 -18 q 14 479 14 248 q 24 659 14 551 q 77 887 35 768 q 184 1070 118 1006 l 183 1154 q 222 1234 186 1208 q 274 1253 248 1253 q 308 1247 284 1253 q 334 1187 331 1240 l 331 1114 q 515 910 439 1081 q 592 480 591 739 q 541 135 592 285 q 308 -81 474 -62 q 288 -83 297 -83 l 274 -82 q 239 -146 268 -146 m 283 122 q 342 234 319 150 q 362 438 362 311 q 314 761 362 619 l 283 122 m 200 123 l 189 836 q 140 682 157 783 q 121 456 121 572 q 139 254 121 346 q 200 123 158 161 z "},"":{"ha":494,"x_min":14,"x_max":460,"o":"m 374 11 q 351 12 368 11 q 309 34 334 14 q 282 68 294 47 q 199 44 241 44 q 115 83 153 44 q 54 206 77 122 q 22 385 31 290 q 14 564 14 481 q 15 690 14 646 l 16 697 q 51 775 18 745 q 130 806 83 806 q 208 771 178 804 q 239 693 239 739 l 238 667 q 235 498 235 568 q 277 243 235 262 l 280 243 q 323 389 308 243 q 338 644 331 477 q 340 704 339 685 q 358 742 342 728 q 395 756 374 756 q 438 737 421 756 q 452 701 452 722 l 452 697 q 448 622 450 663 q 437 457 445 545 q 411 285 430 368 q 353 139 391 201 q 378 124 362 124 q 390 126 383 124 q 405 128 397 128 q 436 119 420 128 q 458 86 452 109 q 460 71 460 79 q 451 40 460 56 q 418 18 441 24 q 374 11 395 11 m 328 822 q 224 865 292 822 q 166 907 188 888 q 144 945 144 926 q 149 970 144 954 q 181 1004 154 985 q 231 1023 208 1023 q 260 1003 252 1023 q 271 964 267 975 q 322 880 282 935 q 351 833 351 843 q 328 822 351 822 z "},"":{"ha":494,"x_min":14,"x_max":460,"o":"m 374 11 q 351 12 368 11 q 309 34 334 14 q 282 68 294 47 q 199 44 241 44 q 115 83 153 44 q 54 206 77 122 q 22 385 31 290 q 14 564 14 481 q 15 690 14 646 l 16 697 q 51 775 18 745 q 130 806 83 806 q 208 771 178 804 q 239 693 239 739 l 238 667 q 235 498 235 568 q 277 243 235 262 l 280 243 q 323 389 308 243 q 338 644 331 477 q 340 704 339 685 q 358 742 342 728 q 395 756 374 756 q 438 737 421 756 q 452 701 452 722 l 452 697 q 448 622 450 663 q 437 457 445 545 q 411 285 430 368 q 353 139 391 201 q 378 124 362 124 q 390 126 383 124 q 405 128 397 128 q 436 119 420 128 q 458 86 452 109 q 460 71 460 79 q 451 40 460 56 q 418 18 441 24 q 374 11 395 11 m 241 814 q 218 825 218 814 q 247 871 218 835 q 298 956 287 926 q 309 995 302 967 q 338 1015 317 1015 q 388 996 361 1015 q 420 962 415 977 q 425 937 425 946 q 403 899 425 918 q 345 857 381 880 q 241 814 277 814 z "},"":{"ha":494,"x_min":14,"x_max":460,"o":"m 374 11 q 351 12 368 11 q 309 34 334 14 q 282 68 294 47 q 199 44 241 44 q 115 83 153 44 q 54 206 77 122 q 22 385 31 290 q 14 564 14 481 q 15 690 14 646 l 16 697 q 51 775 18 745 q 130 806 83 806 q 208 771 178 804 q 239 693 239 739 l 238 667 q 235 498 235 568 q 277 243 235 262 l 280 243 q 323 389 308 243 q 338 644 331 477 q 340 704 339 685 q 358 742 342 728 q 395 756 374 756 q 438 737 421 756 q 452 701 452 722 l 452 697 q 448 622 450 663 q 437 457 445 545 q 411 285 430 368 q 353 139 391 201 q 378 124 362 124 q 390 126 383 124 q 405 128 397 128 q 436 119 420 128 q 458 86 452 109 q 460 71 460 79 q 451 40 460 56 q 418 18 441 24 q 374 11 395 11 m 203 810 q 157 830 178 810 q 144 854 144 841 q 146 864 144 859 l 285 1076 q 306 1092 292 1092 q 318 1088 312 1092 q 375 975 328 1078 l 422 873 q 424 863 424 868 q 410 836 424 850 q 374 816 396 821 q 365 814 369 814 q 343 827 351 814 l 306 1000 l 227 823 q 203 810 219 810 z "},"":{"ha":494,"x_min":14,"x_max":460,"o":"m 374 11 q 351 12 368 11 q 309 34 334 14 q 282 68 294 47 q 199 44 241 44 q 115 83 153 44 q 54 206 77 122 q 22 385 31 290 q 14 564 14 481 q 15 690 14 646 l 16 697 q 51 775 18 745 q 130 806 83 806 q 208 771 178 804 q 239 693 239 739 l 238 667 q 235 498 235 568 q 277 243 235 262 l 280 243 q 323 389 308 243 q 338 644 331 477 q 340 704 339 685 q 358 742 342 728 q 395 756 374 756 q 438 737 421 756 q 452 701 452 722 l 452 697 q 448 622 450 663 q 437 457 445 545 q 411 285 430 368 q 353 139 391 201 q 378 124 362 124 q 390 126 383 124 q 405 128 397 128 q 436 119 420 128 q 458 86 452 109 q 460 71 460 79 q 451 40 460 56 q 418 18 441 24 q 374 11 395 11 m 218 819 q 172 841 190 819 q 156 886 156 860 q 172 930 156 911 q 218 953 190 953 q 263 930 245 953 q 279 886 279 911 q 263 841 279 860 q 218 819 245 819 m 361 819 q 315 841 334 819 q 300 886 300 860 q 315 930 300 911 q 361 953 334 953 q 407 930 389 953 q 422 886 422 911 q 407 841 422 860 q 361 819 389 819 z "},"":{"ha":721,"x_min":14,"x_max":687,"o":"m 402 -47 q 351 -11 366 -47 q 347 10 347 0 q 353 37 347 21 q 381 62 360 52 q 415 142 401 71 q 436 319 429 213 q 446 541 444 425 q 353 331 404 399 q 248 262 303 262 q 115 354 174 262 q 28 597 56 446 q 14 769 14 680 q 24 926 14 845 q 68 1000 32 973 q 135 1022 97 1022 q 224 978 191 1022 q 247 911 247 949 l 246 895 q 235 732 235 810 q 282 498 235 526 l 286 498 q 330 556 308 498 q 373 703 353 614 q 406 873 393 792 q 420 989 418 954 q 463 1069 424 1040 q 536 1094 496 1094 q 571 1091 543 1094 q 632 1036 599 1088 q 687 713 687 939 q 681 562 687 661 q 644 327 675 463 q 557 92 612 191 q 423 -43 503 -8 q 402 -47 412 -47 m 320 1081 q 297 1093 297 1081 q 326 1139 297 1102 q 377 1223 366 1194 q 387 1262 381 1234 q 416 1282 395 1282 q 467 1263 440 1282 q 499 1229 494 1244 q 504 1204 504 1213 q 482 1166 504 1185 q 424 1124 460 1147 q 320 1081 356 1081 z "},"":{"ha":721,"x_min":14,"x_max":687,"o":"m 402 -47 q 351 -11 366 -47 q 347 10 347 0 q 353 37 347 21 q 381 62 360 52 q 415 142 401 71 q 436 319 429 213 q 446 541 444 425 q 353 331 404 399 q 248 262 303 262 q 115 354 174 262 q 28 597 56 446 q 14 769 14 680 q 24 926 14 845 q 68 1000 32 973 q 135 1022 97 1022 q 224 978 191 1022 q 247 911 247 949 l 246 895 q 235 732 235 810 q 282 498 235 526 l 286 498 q 330 556 308 498 q 373 703 353 614 q 406 873 393 792 q 420 989 418 954 q 463 1069 424 1040 q 536 1094 496 1094 q 571 1091 543 1094 q 632 1036 599 1088 q 687 713 687 939 q 681 562 687 661 q 644 327 675 463 q 557 92 612 191 q 423 -43 503 -8 q 402 -47 412 -47 m 221 1046 q 175 1069 193 1046 q 159 1114 159 1088 q 175 1158 159 1139 q 221 1181 193 1181 q 267 1158 248 1181 q 282 1114 282 1139 q 267 1069 282 1088 q 221 1046 248 1046 m 364 1046 q 319 1069 337 1046 q 303 1114 303 1088 q 319 1158 303 1139 q 364 1181 337 1181 q 410 1158 392 1181 q 426 1114 426 1139 q 410 1069 426 1088 q 364 1046 392 1046 z "},"":{"ha":240,"x_min":14,"x_max":206,"o":"m 188 1050 q 144 1064 172 1050 q 84 1105 117 1078 q 31 1154 51 1133 q 14 1191 14 1173 q 56 1248 14 1223 q 102 1261 81 1261 q 120 1260 106 1261 q 137 1228 134 1258 q 184 1109 140 1179 q 206 1061 206 1071 q 188 1050 206 1050 z "},"":{"ha":250,"x_min":14,"x_max":216,"o":"m 35 1057 q 14 1067 14 1057 q 40 1115 14 1076 q 96 1231 90 1185 q 129 1261 100 1261 q 178 1244 153 1261 q 214 1200 204 1227 q 216 1187 216 1194 q 195 1148 216 1167 q 139 1104 174 1128 q 70 1065 104 1080 q 35 1057 50 1057 z "},"":{"ha":203,"x_min":14,"x_max":169,"o":"m 25 -88 q 14 -75 14 -88 q 24 -28 14 -64 q 42 68 42 31 q 39 99 42 84 l 38 109 q 84 142 38 142 q 160 109 133 142 q 169 83 169 98 q 161 54 169 71 q 121 -6 146 28 q 25 -88 62 -88 z "},"":{"ha":378,"x_min":14,"x_max":344,"o":"m 332 1031 q 288 1055 313 1031 q 237 1113 262 1078 q 197 1173 212 1147 q 189 1202 189 1190 q 202 1233 189 1217 q 246 1257 215 1250 q 274 1261 261 1261 q 319 1228 319 1261 l 319 1218 q 316 1187 316 1203 q 334 1090 316 1150 q 344 1044 344 1055 q 332 1031 344 1031 m 158 1031 q 113 1055 138 1031 q 62 1113 87 1078 q 22 1173 37 1147 q 14 1202 14 1190 q 27 1233 14 1217 q 71 1257 40 1250 q 100 1261 86 1261 q 145 1227 145 1261 l 144 1218 q 142 1187 142 1203 q 159 1090 142 1147 q 169 1043 169 1054 q 158 1031 169 1031 z "},"":{"ha":345,"x_min":14,"x_max":311,"o":"m 167 1031 q 156 1043 156 1031 q 165 1090 156 1056 q 184 1187 184 1150 q 180 1218 184 1203 l 180 1228 q 225 1261 180 1261 q 302 1227 275 1261 q 311 1202 311 1217 q 263 1113 311 1178 q 167 1031 203 1031 m 25 1031 q 14 1044 14 1031 q 24 1090 14 1057 q 43 1190 43 1152 q 40 1219 43 1204 l 39 1229 q 85 1261 39 1261 q 161 1227 134 1261 q 170 1202 170 1217 q 161 1173 170 1189 q 121 1113 146 1147 q 25 1031 61 1031 z "},"":{"ha":345,"x_min":14,"x_max":311,"o":"m 167 -88 q 156 -77 156 -88 q 165 -29 156 -62 q 184 68 184 32 q 180 99 184 84 l 180 109 q 226 142 180 142 q 302 109 275 142 q 311 83 311 98 q 263 -6 311 60 q 167 -88 203 -88 m 25 -87 q 14 -75 14 -87 q 24 -28 14 -63 q 43 70 43 33 q 40 99 43 85 l 39 109 q 85 142 39 142 q 161 108 134 142 q 170 83 170 97 q 161 54 170 70 q 121 -7 146 28 q 25 -87 62 -87 z "},"":{"ha":861,"x_min":14,"x_max":827,"o":"m 400 143 q 276 186 338 143 q 171 332 214 229 q 113 566 127 435 l 39 570 q 14 614 14 574 q 39 657 14 655 l 107 661 l 107 681 q 109 739 107 709 l 39 743 q 14 787 14 747 q 39 830 14 828 l 118 835 q 184 1069 136 964 q 310 1228 232 1173 q 442 1270 368 1270 q 674 1173 562 1270 q 817 994 758 1099 q 823 981 821 984 q 827 967 827 974 q 791 931 827 943 q 771 928 781 928 q 713 964 728 928 l 712 965 q 526 1145 614 1145 l 524 1145 q 412 1055 458 1139 q 341 848 365 971 l 418 853 q 439 832 431 852 q 447 774 447 807 q 425 716 447 718 l 325 723 q 322 675 323 699 l 418 680 q 439 659 431 680 q 447 602 447 634 q 425 543 447 545 l 326 550 q 378 367 338 439 q 493 288 418 294 l 499 288 q 720 449 592 288 q 770 469 737 469 q 796 464 783 469 q 825 430 825 452 q 818 411 825 420 q 633 231 720 289 q 400 143 505 143 z "},"":{"ha":1018,"x_min":14,"x_max":984,"o":"m 248 28 l 242 28 q 102 120 155 35 q 27 335 48 205 q 14 510 14 420 q 21 650 14 557 q 70 860 28 744 q 184 1032 112 975 q 284 1068 229 1068 q 456 975 391 1068 q 503 810 503 907 q 467 644 503 734 q 336 431 414 522 q 246 353 292 381 q 270 252 254 293 q 327 191 292 191 q 404 233 358 191 q 442 250 422 250 q 496 208 481 250 q 499 192 499 200 q 482 153 499 172 q 248 28 354 28 m 237 490 q 363 687 315 574 q 396 816 396 771 q 395 830 396 823 q 366 867 389 867 q 357 866 361 867 q 289 795 315 852 q 250 656 263 739 q 237 490 237 574 m 730 125 q 583 198 641 125 q 509 371 530 267 q 495 512 495 440 q 502 625 495 549 q 551 794 509 701 q 665 933 593 887 q 766 962 710 962 q 937 886 872 962 q 984 754 984 831 q 948 620 984 692 q 817 449 896 522 q 728 385 774 408 q 789 260 744 286 q 809 256 798 256 q 885 290 840 256 q 924 303 904 303 q 978 269 962 303 q 981 256 981 262 q 964 225 981 241 q 730 125 836 125 m 719 496 q 732 508 726 501 q 844 654 800 571 q 878 758 878 722 q 877 770 878 764 q 848 800 871 800 q 838 799 843 800 q 771 742 797 788 q 732 630 745 696 q 719 496 719 564 z "}}}
